<svg width="830" height="127" viewBox="0 0 830 127" fill="none" xmlns="http://www.w3.org/2000/svg">
<g clip-path="url(#clip0_351_4417)">
<path d="M616.934 24.9226C616.534 24.6724 616.066 24.5464 615.592 24.5608H599.507C599.317 24.5475 599.127 24.5755 598.95 24.6427C598.773 24.7099 598.613 24.8147 598.482 24.9497C598.353 25.0753 598.251 25.2254 598.183 25.3911C598.115 25.5567 598.082 25.7342 598.087 25.9128L598.119 51.541C598.119 51.8148 598.009 52.0775 597.812 52.2715C597.616 52.4656 597.349 52.5752 597.071 52.5764L569.721 52.6081C569.443 52.6081 569.177 52.4994 568.98 52.3061C568.784 52.1128 568.673 51.8506 568.673 51.5771L568.641 25.8902C568.648 25.7136 568.609 25.5383 568.529 25.3802C568.449 25.2222 568.329 25.0866 568.182 24.9859C567.887 24.7267 567.514 24.5681 567.12 24.5337H550.718C550.551 24.5225 550.384 24.5497 550.23 24.6133C550.076 24.6769 549.939 24.7751 549.831 24.8999C549.563 25.1874 549.401 25.5554 549.371 25.9444L549.468 101.662C549.468 102.368 549.697 102.739 550.791 102.739H566.973C567.447 102.77 567.918 102.635 568.301 102.359C568.437 102.238 568.541 102.087 568.606 101.919C568.671 101.751 568.694 101.57 568.673 101.391L568.632 70.7802C568.632 70.5068 568.742 70.2446 568.939 70.0512C569.136 69.8579 569.402 69.7493 569.68 69.7493L597.034 69.7176C597.172 69.7164 597.309 69.7421 597.436 69.7931C597.564 69.8442 597.68 69.9196 597.778 70.015C597.876 70.1104 597.953 70.224 598.006 70.3492C598.059 70.4743 598.087 70.6085 598.087 70.744L598.123 101.409C598.123 102.133 598.376 102.35 598.459 102.422C598.769 102.663 599.159 102.783 599.553 102.757H615.854C616.281 102.782 616.703 102.657 617.044 102.404C617.132 102.332 617.389 102.115 617.389 101.405L617.292 25.7907C617.292 25.1622 617.044 24.9949 616.934 24.9226Z" fill="#E34A5E"/>
<path d="M674.056 28.5663L672.737 25.6272C672.501 25.3549 672.243 25.1023 671.965 24.8722C671.711 24.6556 671.381 24.5438 671.046 24.5602H656.904C656.713 24.5663 656.525 24.6061 656.348 24.6777C656.103 24.7722 655.873 24.9 655.663 25.0575C655.459 25.2019 655.277 25.3739 655.121 25.5685C655.058 25.6398 655.007 25.7207 654.969 25.8081C654.956 25.8757 654.938 25.9422 654.914 26.0071L625.193 102.005C625.117 102.144 625.083 102.301 625.097 102.458C625.412 102.691 625.801 102.807 626.195 102.788H642.372C642.79 102.823 643.206 102.708 643.544 102.464C643.882 102.221 644.119 101.865 644.211 101.463C644.918 99.5909 645.626 97.7371 646.348 95.8968C647.069 94.0566 647.772 92.2253 648.471 90.3715C648.545 90.1737 648.679 90.0031 648.855 89.8826C649.031 89.7622 649.24 89.6977 649.455 89.6978L678.619 89.6616C678.834 89.6615 679.043 89.726 679.219 89.8465C679.395 89.9669 679.529 90.1375 679.603 90.3353C680.311 92.1982 681.02 94.052 681.731 95.8968C682.434 97.7371 683.16 99.591 683.905 101.445C684.016 101.867 684.259 102.245 684.599 102.525C685.02 102.75 685.499 102.849 685.977 102.81H701.709C702.169 102.862 702.632 102.744 703.009 102.48C703.065 102.421 703.189 102.281 703.009 101.784L674.056 28.5663ZM673.33 73.8678C673.232 74.0001 673.104 74.1079 672.957 74.1825C672.809 74.2572 672.646 74.2965 672.479 74.2973H655.581C655.412 74.2974 655.245 74.2573 655.096 74.1805C654.946 74.1036 654.817 73.9923 654.721 73.8559C654.624 73.7196 654.562 73.5623 654.541 73.3975C654.519 73.2326 654.539 73.0651 654.597 72.9092C655.296 71.0599 655.976 69.075 656.697 67.0312C657.419 64.9875 658.113 62.79 658.802 60.6287C659.492 58.4674 660.181 56.306 660.916 54.1719C661.652 52.0377 662.35 50.012 663.044 48.1763C663.112 47.9715 663.246 47.7946 663.427 47.6727C663.607 47.5509 663.823 47.491 664.042 47.5026C664.259 47.5064 664.47 47.5762 664.645 47.7025C664.82 47.8288 664.951 48.0054 665.02 48.2079L673.472 72.9409C673.524 73.0956 673.538 73.26 673.513 73.421C673.488 73.582 673.426 73.7351 673.33 73.8678Z" fill="#E34A5E"/>
<path d="M761.224 85.6018L731.034 85.6379C730.756 85.6379 730.489 85.5293 730.293 85.336C730.096 85.1427 729.986 84.8805 729.986 84.607L729.912 25.9036C729.908 25.7231 729.865 25.5455 729.786 25.3826C729.707 25.2197 729.593 25.0751 729.453 24.9586C729.175 24.7049 728.811 24.5629 728.433 24.5607H712.117C711.926 24.5423 711.732 24.5661 711.551 24.6302C711.37 24.6943 711.205 24.7972 711.07 24.9315C710.943 25.0614 710.845 25.2145 710.779 25.3822C710.714 25.5498 710.683 25.7286 710.688 25.9081L710.78 101.418C710.78 101.778 710.925 102.123 711.184 102.377C711.442 102.632 711.793 102.775 712.159 102.775L761.256 102.716C761.442 102.718 761.627 102.678 761.796 102.6C761.964 102.521 762.113 102.407 762.23 102.264C762.484 101.982 762.625 101.619 762.625 101.242V86.9809C762.644 86.793 762.62 86.6034 762.555 86.4258C762.489 86.2483 762.385 86.0873 762.249 85.9545C762.111 85.8305 761.949 85.7353 761.773 85.6747C761.597 85.6141 761.41 85.5893 761.224 85.6018Z" fill="#E34A5E"/>
<path d="M827.808 86.0541L790.779 86.0993C790.501 86.0993 790.235 85.9907 790.038 85.7974C789.842 85.6041 789.731 85.3419 789.731 85.0684V71.2596C789.731 70.9862 789.842 70.724 790.038 70.5306C790.235 70.3373 790.501 70.2287 790.779 70.2287L818.308 70.197C818.484 70.2176 818.663 70.1973 818.83 70.1376C818.997 70.0779 819.147 69.9806 819.269 69.8534C819.48 69.6402 819.605 69.3592 819.623 69.0621V57.3061C819.643 57.1654 819.631 57.0218 819.587 56.8864C819.544 56.7509 819.469 56.6269 819.37 56.5238C819.038 56.3139 818.647 56.2126 818.253 56.2345L790.811 56.2661C790.533 56.2661 790.267 56.1575 790.07 55.9642C789.874 55.7708 789.764 55.5086 789.764 55.2351V41.892C789.764 41.6186 789.874 41.3564 790.07 41.1631C790.267 40.9697 790.533 40.8611 790.811 40.8611L826.392 40.8159C826.599 40.8399 826.808 40.8108 827 40.7316C827.191 40.6524 827.359 40.5256 827.486 40.3638C827.768 40.0494 827.931 39.6482 827.946 39.2289V25.6958C827.979 25.2617 827.843 24.8313 827.564 24.4931C827.42 24.3542 827.246 24.2489 827.055 24.1847C826.864 24.1205 826.661 24.0992 826.461 24.1223L771.881 24.1902C771.697 24.169 771.511 24.1888 771.336 24.2483C771.161 24.3078 771.002 24.4054 770.87 24.5338C770.612 24.8532 770.485 25.257 770.516 25.6642L770.608 101.491C770.588 101.667 770.604 101.846 770.656 102.017C770.708 102.187 770.795 102.345 770.912 102.481C771.216 102.714 771.598 102.826 771.982 102.797L827.693 102.73C828.823 102.73 828.878 102.345 828.911 102.097C828.943 101.874 829.048 101.668 829.209 101.509C829.343 101.373 829.343 101.301 829.343 101.26V87.5281C829.237 86.4204 828.874 86.0541 827.808 86.0541Z" fill="#E34A5E"/>
<path d="M503.34 25.7855C503.341 25.6811 503.358 25.5774 503.391 25.4781C503.391 25.451 503.391 25.3424 503.391 25.2023C503.4 25.1187 503.389 25.0342 503.358 24.9556C503.328 24.877 503.279 24.8066 503.216 24.7501C503.216 24.7501 502.968 24.5557 502.127 24.5557L484.286 24.5783C483.834 24.5337 483.38 24.6482 483.006 24.9015C482.631 25.1548 482.36 25.5305 482.241 25.9619L466.707 75.3735C466.642 75.5821 466.511 75.765 466.333 75.8958C466.156 76.0267 465.941 76.0986 465.719 76.1014H465.746C465.527 76.1011 465.313 76.0328 465.134 75.9063C464.956 75.7797 464.823 75.6012 464.754 75.3961L447.791 25.9121C447.432 24.9671 446.871 24.5557 445.911 24.5557L428.24 24.5783C427.252 24.5783 427.252 24.836 427.252 25.0621C427.336 25.2851 427.391 25.5175 427.417 25.7539C432.136 37.9531 436.839 50.0437 441.527 62.0258C446.233 74.0622 450.957 86.2056 455.7 98.4561C455.939 99.0665 456.224 99.6904 456.541 100.31C456.858 100.929 457.203 101.558 457.552 102.119C457.667 102.349 457.86 102.747 458.958 102.747H472.525C472.82 102.754 473.107 102.659 473.339 102.48C473.645 102.234 473.914 101.946 474.138 101.626L502.991 26.7667L503.34 25.7855Z" fill="#E34A5E"/>
<path d="M541.27 24.7551C541.27 24.7551 541.022 24.5607 540.185 24.5607H522.91C522.456 24.5173 522.001 24.6333 521.626 24.8882C521.251 25.1431 520.979 25.5204 520.86 25.9533L514.559 43.4337L503.037 75.3966C502.965 75.5988 502.831 75.774 502.653 75.8979C502.475 76.0218 502.263 76.0883 502.045 76.0884H501.99C501.774 76.0885 501.564 76.0224 501.388 75.8991C501.213 75.7759 501.081 75.6018 501.011 75.4011L499.356 70.658C499.177 70.138 498.221 70.1742 498.033 70.6896L490.932 89.228C490.119 91.3079 489.962 92.678 490.675 94.4594L493.593 101.744C493.725 102.111 493.994 102.415 494.347 102.594C494.66 102.723 495.001 102.774 495.339 102.743H508.874C509.085 102.748 509.294 102.71 509.489 102.633C509.685 102.555 509.861 102.439 510.009 102.291C510.318 102.034 510.568 101.715 510.74 101.355C513.167 95.0925 515.703 88.6945 518.282 82.3643C520.86 76.0341 523.447 69.704 526.058 63.4145C528.668 57.125 531.265 50.8038 533.871 44.5007C536.421 38.2926 538.958 31.9761 541.403 25.7228C541.407 25.6242 541.426 25.5267 541.458 25.4334V25.1576C541.459 25.0809 541.443 25.005 541.41 24.9354C541.378 24.8658 541.33 24.8042 541.27 24.7551Z" fill="#E34A5E"/>
<path d="M340.653 86.5058L303.625 86.551C303.347 86.551 303.08 86.4425 302.884 86.2491C302.687 86.0558 302.577 85.7936 302.577 85.5202V71.7113C302.577 71.4379 302.687 71.1757 302.884 70.9823C303.08 70.789 303.347 70.6804 303.625 70.6804L331.154 70.6488C331.33 70.6693 331.509 70.649 331.676 70.5893C331.842 70.5296 331.993 70.4323 332.114 70.3051C332.325 70.0919 332.451 69.8109 332.468 69.5138V57.7578C332.489 57.6171 332.477 57.4736 332.433 57.3381C332.389 57.2026 332.315 57.0787 332.215 56.9756C331.883 56.7656 331.493 56.6643 331.099 56.6862L303.657 56.7178C303.379 56.7178 303.113 56.6092 302.916 56.4159C302.72 56.2226 302.609 55.9603 302.609 55.6869V42.3437C302.609 42.0703 302.72 41.8081 302.916 41.6148C303.113 41.4215 303.379 41.3129 303.657 41.3129L339.238 41.2677C339.444 41.2894 339.653 41.2593 339.844 41.1802C340.035 41.1012 340.203 40.9757 340.332 40.8155C340.612 40.5122 340.774 40.1217 340.791 39.7122V26.5454C340.825 26.121 340.688 25.7007 340.41 25.3744C340.264 25.2387 340.089 25.136 339.899 25.0735C339.708 25.011 339.506 24.9903 339.307 25.0126L284.727 25.0759C284.543 25.0555 284.358 25.0753 284.183 25.1339C284.008 25.1925 283.848 25.2886 283.716 25.4151C283.458 25.7225 283.331 26.1163 283.362 26.5138L283.454 101.929C283.433 102.106 283.45 102.284 283.502 102.455C283.554 102.625 283.641 102.783 283.757 102.919C284.06 103.151 284.44 103.264 284.823 103.236L340.538 103.168C341.669 103.168 341.724 102.783 341.756 102.535C341.789 102.312 341.894 102.106 342.055 101.947C342.188 101.811 342.188 101.739 342.188 101.698V87.9663C342.083 86.8721 341.72 86.5058 340.653 86.5058Z" fill="#E34A5E"/>
<path d="M413.722 44.1754C411.958 41.2811 409.808 38.6321 407.329 36.2988C404.833 33.9587 402.055 31.9285 399.057 30.2535C395.991 28.5545 392.717 27.2492 389.314 26.3695C385.772 25.4556 382.124 24.9996 378.463 25.013L351.403 25.0447C350.612 25.0447 350.373 25.3114 350.295 25.4018C350.03 25.7273 349.899 26.1388 349.928 26.5548L350.02 101.997C350.02 102.594 350.153 102.901 350.263 102.938C350.64 103.145 351.067 103.249 351.499 103.236L378.564 103.204C382.232 103.208 385.886 102.752 389.438 101.848C392.845 100.978 396.128 99.6902 399.208 98.0136C405.222 94.7149 410.258 89.9305 413.819 84.1324C415.607 81.2068 416.986 78.057 417.918 74.7682C418.889 71.3155 419.37 67.7474 419.347 64.1651C419.357 60.5922 418.859 57.0356 417.867 53.5983C416.903 50.2949 415.51 47.1278 413.722 44.1754ZM399.015 72.4894H398.887C397.87 74.9633 396.377 77.2204 394.489 79.1361C392.6 81.0287 390.382 82.5724 387.94 83.6938C385.398 84.8586 382.665 85.5631 379.869 85.7737C379.065 85.8461 378.247 85.9139 377.429 85.9682C376.611 86.0224 375.747 86.054 374.883 86.054H370.264C369.986 86.054 369.72 85.9455 369.523 85.7521C369.327 85.5588 369.216 85.2965 369.216 85.0231L369.161 43.2213C369.161 42.9479 369.272 42.6857 369.468 42.4924C369.665 42.299 369.931 42.1904 370.209 42.1904H377.516C380.571 42.1695 383.603 42.7172 386.451 43.8046C389.175 44.8289 391.667 46.3738 393.782 48.3505C395.897 50.3271 397.593 52.6962 398.772 55.321C400.01 58.1043 400.636 61.1136 400.61 64.1516C400.64 67.0061 400.101 69.8386 399.025 72.4894H399.015Z" fill="#E34A5E"/>
<path d="M275.016 101.192C274.597 100.482 274.257 99.8719 273.995 99.3474L259.849 73.2309C259.728 72.9977 259.701 72.7277 259.774 72.4757C259.848 72.2238 260.016 72.0087 260.245 71.8744C262.153 70.7916 263.921 69.486 265.511 67.9859C267.103 66.4844 268.493 64.7886 269.648 62.9398C270.812 61.0721 271.724 59.0626 272.359 56.9624C273.011 54.7853 273.336 52.5263 273.324 50.2568C273.338 46.8932 272.643 43.5632 271.284 40.4768C269.963 37.4752 268.067 34.7519 265.7 32.4555C263.298 30.1505 260.478 28.31 257.386 27.0296C254.16 25.6938 250.692 25.0185 247.193 25.0447L211.566 25.0854C210.826 25.0854 210.61 25.334 210.536 25.4154C210.286 25.7366 210.165 26.1376 210.196 26.5413L210.288 101.974C210.267 102.15 210.283 102.328 210.335 102.497C210.387 102.665 210.475 102.822 210.592 102.956C210.898 103.185 211.279 103.296 211.662 103.268H228.189C228.189 103.268 229.673 102.933 229.503 102.092L229.963 90.7113L229.503 77.653L229.963 60.4259L229.503 56.0083V40.5445C229.503 40.409 229.529 40.2747 229.582 40.1493C229.634 40.024 229.711 39.9101 229.809 39.8143C229.906 39.7184 230.022 39.6425 230.149 39.5909C230.277 39.5393 230.413 39.5131 230.551 39.5137H238.157C239.237 39.5137 240.253 39.5362 241.167 39.595C242.082 39.6538 243.043 39.7081 244.072 39.7804C245.448 39.9676 246.771 40.4292 247.96 41.1369C249.077 41.7988 250.068 42.6481 250.888 43.6463C251.688 44.6289 252.322 45.733 252.763 46.9155C253.204 48.0721 253.433 49.297 253.438 50.5327C253.442 51.7921 253.241 53.0439 252.841 54.2404C252.453 55.4298 251.857 56.5437 251.081 57.5321C250.288 58.533 249.309 59.3756 248.194 60.0144C247.004 60.6968 245.681 61.1237 244.311 61.2669C243.672 61.3438 243.084 61.398 242.555 61.4387C242.289 61.4387 241.999 61.4703 241.696 61.4794C240.496 61.4794 240.552 62.3837 240.552 62.3837V74.6823C240.556 76.441 240.998 78.1719 241.838 79.7239L253.824 101.843C254.012 102.228 254.25 102.587 254.532 102.91C254.659 103.046 254.815 103.152 254.99 103.218C255.164 103.285 255.352 103.311 255.539 103.295H274.381C274.705 103.322 275.029 103.241 275.3 103.064C275.365 103.014 275.494 102.91 275.489 102.54C275.46 102.056 275.296 101.59 275.016 101.192Z" fill="#E34A5E"/>
</g>
<g clip-path="url(#clip1_351_4417)">
<path d="M86.8552 126.505L0.746094 82.5219V32.255L62.2515 0.835938H99.157L123.761 25.9675V44.819L148.364 51.1139L172.964 76.2603V82.5552L136.059 101.373L123.761 95.0784V107.646L86.8552 126.505ZM86.8552 113.941L111.459 101.373L80.6934 69.9654L86.8552 66.8253L123.761 76.2603L136.059 88.8242L160.666 76.2603L148.364 63.6704L99.157 51.0991L111.459 25.9675L99.157 13.3999H62.2515L13.0443 38.5352L86.8552 113.941ZM68.4025 57.3755L49.9497 38.524L74.5534 25.9564L86.8552 38.5352L68.4025 57.3755Z" fill="#E34A5E"/>
</g>
<defs>
<clipPath id="clip0_351_4417">
<rect width="619.055" height="79.1273" fill="white" transform="translate(210.201 24.1084)"/>
</clipPath>
<clipPath id="clip1_351_4417">
<rect width="172.218" height="125.673" fill="white" transform="translate(0.746094 0.835938)"/>
</clipPath>
</defs>
</svg>
