<svg width="24" height="24" viewBox="0 0 24 24" fill="none" xmlns="http://www.w3.org/2000/svg">
<mask id="mask0_296_36878" style="mask-type:luminance" maskUnits="userSpaceOnUse" x="3" y="1" width="18" height="22">
<path d="M21 1.24414H3V22.318H21V1.24414Z" fill="white"/>
</mask>
<g mask="url(#mask0_296_36878)">
<path d="M15.9498 1.24414C14.8263 1.32185 13.5132 2.04097 12.7479 2.97742C12.0499 3.82694 11.4757 5.08873 11.6995 6.31486C12.927 6.35309 14.1954 5.61688 14.9303 4.66461C15.6179 3.7782 16.1381 2.52434 15.9498 1.24414Z" fill="white"/>
<path d="M20.3902 8.31341C19.3115 6.96077 17.7956 6.17578 16.3639 6.17578C14.4739 6.17578 13.6744 7.08064 12.3613 7.08064C11.0074 7.08064 9.97872 6.17842 8.34421 6.17842C6.73865 6.17842 5.02914 7.15964 3.94517 8.83765C2.42131 11.2005 2.68209 15.643 5.15165 19.427C6.03539 20.7809 7.21547 22.3035 8.75905 22.3167C10.1328 22.3298 10.52 21.4356 12.381 21.4263C14.2421 21.4158 14.595 22.3285 15.9661 22.314C17.5111 22.3022 18.7557 20.615 19.6394 19.2611C20.273 18.2903 20.5087 17.8017 21 16.7059C17.4268 15.3454 16.8539 10.264 20.3902 8.31341Z" fill="white"/>
</g>
</svg>
