<svg width="24" height="24" viewBox="0 0 24 24" fill="none" xmlns="http://www.w3.org/2000/svg">
<path d="M19.1248 6V15.75C19.1248 16.0484 19.0063 16.3345 18.7953 16.5455C18.5843 16.7565 18.2982 16.875 17.9998 16.875C17.7015 16.875 17.4153 16.7565 17.2043 16.5455C16.9934 16.3345 16.8748 16.0484 16.8748 15.75V8.71875L6.79671 18.7969C6.58441 19.0064 6.29812 19.1239 5.99983 19.1239C5.70154 19.1239 5.41525 19.0064 5.20296 18.7969C5.09808 18.6924 5.01486 18.5682 4.95808 18.4314C4.9013 18.2947 4.87207 18.1481 4.87207 18C4.87207 17.8519 4.9013 17.7053 4.95808 17.5686C5.01486 17.4318 5.09808 17.3076 5.20296 17.2031L15.2811 7.125H8.24983C7.95146 7.125 7.66532 7.00647 7.45434 6.7955C7.24336 6.58452 7.12483 6.29837 7.12483 6C7.12483 5.70163 7.24336 5.41548 7.45434 5.2045C7.66532 4.99353 7.95146 4.875 8.24983 4.875H17.9998C18.2982 4.875 18.5843 4.99353 18.7953 5.2045C19.0063 5.41548 19.1248 5.70163 19.1248 6Z" fill="currentColor"/>
</svg>
