<svg width="24" height="24" viewBox="0 0 24 24" fill="none" xmlns="http://www.w3.org/2000/svg">
<path opacity="0.2" d="M5.25 14.625C6.28553 14.625 7.125 13.7855 7.125 12.75C7.125 11.7145 6.28553 10.875 5.25 10.875C4.21447 10.875 3.375 11.7145 3.375 12.75C3.375 13.7855 4.21447 14.625 5.25 14.625Z" fill="currentColor"/>
<path d="M12.7495 5.7375V3.75C12.7495 3.55109 12.6705 3.36032 12.5299 3.21967C12.3892 3.07902 12.1984 3 11.9995 3C11.8006 3 11.6098 3.07902 11.4692 3.21967C11.3285 3.36032 11.2495 3.55109 11.2495 3.75V5.7375C10.7102 5.90069 10.2377 6.23309 9.90189 6.68555C9.56608 7.13802 9.38477 7.68653 9.38477 8.25C9.38477 8.81347 9.56608 9.36198 9.90189 9.81445C10.2377 10.2669 10.7102 10.5993 11.2495 10.7625V20.25C11.2495 20.4489 11.3285 20.6397 11.4692 20.7803C11.6098 20.921 11.8006 21 11.9995 21C12.1984 21 12.3892 20.921 12.5299 20.7803C12.6705 20.6397 12.7495 20.4489 12.7495 20.25V10.7625C13.2888 10.5993 13.7613 10.2669 14.0972 9.81445C14.433 9.36198 14.6143 8.81347 14.6143 8.25C14.6143 7.68653 14.433 7.13802 14.0972 6.68555C13.7613 6.23309 13.2888 5.90069 12.7495 5.7375ZM11.9995 9.375C11.777 9.375 11.5595 9.30902 11.3745 9.1854C11.1895 9.06179 11.0453 8.88609 10.9602 8.68052C10.875 8.47495 10.8527 8.24875 10.8961 8.03052C10.9395 7.81229 11.0467 7.61184 11.204 7.4545C11.3614 7.29717 11.5618 7.19002 11.78 7.14662C11.9983 7.10321 12.2245 7.12549 12.43 7.21064C12.6356 7.29578 12.8113 7.43998 12.9349 7.62498C13.0585 7.80999 13.1245 8.0275 13.1245 8.25C13.1245 8.54837 13.006 8.83452 12.795 9.0455C12.584 9.25647 12.2979 9.375 11.9995 9.375V9.375ZM21.3745 15.75C21.3739 15.1852 21.1911 14.6357 20.8533 14.1831C20.5155 13.7305 20.0408 13.3989 19.4995 13.2375V3.75C19.4995 3.55109 19.4205 3.36032 19.2799 3.21967C19.1392 3.07902 18.9484 3 18.7495 3C18.5506 3 18.3598 3.07902 18.2192 3.21967C18.0785 3.36032 17.9995 3.55109 17.9995 3.75V13.2375C17.4602 13.4007 16.9877 13.7331 16.6519 14.1856C16.3161 14.638 16.1348 15.1865 16.1348 15.75C16.1348 16.3135 16.3161 16.862 16.6519 17.3144C16.9877 17.7669 17.4602 18.0993 17.9995 18.2625V20.25C17.9995 20.4489 18.0785 20.6397 18.2192 20.7803C18.3598 20.921 18.5506 21 18.7495 21C18.9484 21 19.1392 20.921 19.2799 20.7803C19.4205 20.6397 19.4995 20.4489 19.4995 20.25V18.2625C20.0408 18.1011 20.5155 17.7695 20.8533 17.3169C21.1911 16.8643 21.3739 16.3148 21.3745 15.75V15.75ZM18.7495 16.875C18.527 16.875 18.3095 16.809 18.1245 16.6854C17.9395 16.5618 17.7953 16.3861 17.7102 16.1805C17.625 15.975 17.6027 15.7488 17.6461 15.5305C17.6895 15.3123 17.7967 15.1118 17.954 14.9545C18.1114 14.7972 18.3118 14.69 18.53 14.6466C18.7483 14.6032 18.9745 14.6255 19.18 14.7106C19.3856 14.7958 19.5613 14.94 19.6849 15.125C19.8085 15.31 19.8745 15.5275 19.8745 15.75C19.8745 16.0484 19.756 16.3345 19.545 16.5455C19.334 16.7565 19.0479 16.875 18.7495 16.875V16.875ZM5.99952 10.2375V3.75C5.99952 3.55109 5.92051 3.36032 5.77985 3.21967C5.6392 3.07902 5.44844 3 5.24952 3C5.05061 3 4.85985 3.07902 4.71919 3.21967C4.57854 3.36032 4.49952 3.55109 4.49952 3.75V10.2375C3.9602 10.4007 3.48771 10.7331 3.15189 11.1856C2.81608 11.638 2.63477 12.1865 2.63477 12.75C2.63477 13.3135 2.81608 13.862 3.15189 14.3144C3.48771 14.7669 3.9602 15.0993 4.49952 15.2625V20.25C4.49952 20.4489 4.57854 20.6397 4.71919 20.7803C4.85985 20.921 5.05061 21 5.24952 21C5.44844 21 5.6392 20.921 5.77985 20.7803C5.92051 20.6397 5.99952 20.4489 5.99952 20.25V15.2625C6.53884 15.0993 7.01134 14.7669 7.34715 14.3144C7.68297 13.862 7.86428 13.3135 7.86428 12.75C7.86428 12.1865 7.68297 11.638 7.34715 11.1856C7.01134 10.7331 6.53884 10.4007 5.99952 10.2375V10.2375ZM5.24952 13.875C5.02702 13.875 4.80951 13.809 4.62451 13.6854C4.4395 13.5618 4.29531 13.3861 4.21016 13.1805C4.12501 12.975 4.10273 12.7488 4.14614 12.5305C4.18955 12.3123 4.29669 12.1118 4.45403 11.9545C4.61136 11.7972 4.81182 11.69 5.03005 11.6466C5.24828 11.6032 5.47448 11.6255 5.68004 11.7106C5.88561 11.7958 6.06131 11.94 6.18493 12.125C6.30854 12.31 6.37452 12.5275 6.37452 12.75C6.37452 13.0484 6.256 13.3345 6.04502 13.5455C5.83404 13.7565 5.54789 13.875 5.24952 13.875V13.875Z" fill="currentColor"/>
</svg>
