<svg width="24" height="24" viewBox="0 0 24 24" fill="none" xmlns="http://www.w3.org/2000/svg">
<path d="M13.281 12.531L5.78104 20.031C5.64031 20.1718 5.44944 20.2508 5.25042 20.2508C5.05139 20.2508 4.86052 20.1718 4.71979 20.031C4.57906 19.8903 4.5 19.6994 4.5 19.5004C4.5 19.3014 4.57906 19.1105 4.71979 18.9698L11.6901 12.0004L4.71979 5.03104C4.57906 4.89031 4.5 4.69944 4.5 4.50042C4.5 4.30139 4.57906 4.11052 4.71979 3.96979C4.86052 3.82906 5.05139 3.75 5.25042 3.75C5.44944 3.75 5.64031 3.82906 5.78104 3.96979L13.281 11.4698C13.3508 11.5394 13.4061 11.6222 13.4438 11.7132C13.4816 11.8043 13.501 11.9019 13.501 12.0004C13.501 12.099 13.4816 12.1966 13.4438 12.2876C13.4061 12.3787 13.3508 12.4614 13.281 12.531ZM20.781 11.4698L13.281 3.96979C13.1403 3.82906 12.9494 3.75 12.7504 3.75C12.5514 3.75 12.3605 3.82906 12.2198 3.96979C12.0791 4.11052 12 4.30139 12 4.50042C12 4.69944 12.0791 4.89031 12.2198 5.03104L19.1901 12.0004L12.2198 18.9698C12.0791 19.1105 12 19.3014 12 19.5004C12 19.6994 12.0791 19.8903 12.2198 20.031C12.3605 20.1718 12.5514 20.2508 12.7504 20.2508C12.9494 20.2508 13.1403 20.1718 13.281 20.031L20.781 12.531C20.8508 12.4614 20.9061 12.3787 20.9438 12.2876C20.9816 12.1966 21.001 12.099 21.001 12.0004C21.001 11.9019 20.9816 11.8043 20.9438 11.7132C20.9061 11.6222 20.8508 11.5394 20.781 11.4698Z" fill="currentColor"/>
</svg>
