<svg width="20" height="20" viewBox="0 0 20 20" fill="none" xmlns="http://www.w3.org/2000/svg">
<path d="M18.5894 8.37544C18.572 8.28743 18.5358 8.2042 18.4834 8.1314C18.431 8.05861 18.3635 7.99795 18.2855 7.95357L15.955 6.62544L15.9457 3.99888C15.9454 3.90842 15.9255 3.8191 15.8873 3.73709C15.8491 3.65508 15.7936 3.58234 15.7246 3.52388C14.8792 2.80878 13.9057 2.26079 12.8558 1.90903C12.7731 1.88105 12.6855 1.87069 12.5986 1.87863C12.5117 1.88657 12.4274 1.91263 12.3511 1.95513L10.0003 3.26919L7.64722 1.95278C7.57093 1.91005 7.48653 1.88379 7.39946 1.87572C7.31239 1.86764 7.2246 1.87793 7.14175 1.90591C6.09249 2.2599 5.12004 2.81002 4.27613 3.527C4.2072 3.58538 4.15174 3.658 4.11357 3.73986C4.0754 3.82173 4.05543 3.9109 4.05503 4.00122L4.04332 6.63013L1.71285 7.95825C1.63488 8.00264 1.56738 8.06329 1.51494 8.13609C1.4625 8.20888 1.42635 8.29212 1.40894 8.38013C1.19572 9.45192 1.19572 10.5552 1.40894 11.627C1.42635 11.715 1.4625 11.7982 1.51494 11.871C1.56738 11.9438 1.63488 12.0045 1.71285 12.0489L4.04332 13.377L4.05269 16.0043C4.05297 16.0948 4.07289 16.1841 4.11106 16.2661C4.14923 16.3481 4.20475 16.4209 4.27378 16.4793C5.11914 17.1944 6.09265 17.7424 7.14253 18.0942C7.22521 18.1222 7.31284 18.1325 7.39976 18.1246C7.48668 18.1167 7.57098 18.0906 7.64722 18.0481L10.0003 16.7301L12.3535 18.0465C12.4466 18.0985 12.5516 18.1254 12.6582 18.1247C12.7264 18.1246 12.7942 18.1135 12.8589 18.0918C13.9079 17.738 14.8803 17.1884 15.7246 16.4723C15.7935 16.4139 15.849 16.3413 15.8871 16.2595C15.9253 16.1776 15.9453 16.0884 15.9457 15.9981L15.9574 13.3692L18.2878 12.0411C18.3658 11.9967 18.4333 11.936 18.4858 11.8632C18.5382 11.7904 18.5743 11.7072 18.5918 11.6192C18.8038 10.5483 18.803 9.44607 18.5894 8.37544ZM10.0003 13.1247C9.38228 13.1247 8.77809 12.9414 8.26419 12.598C7.75029 12.2546 7.34975 11.7666 7.11322 11.1955C6.8767 10.6245 6.81481 9.99619 6.93539 9.39C7.05597 8.78381 7.3536 8.22699 7.79064 7.78995C8.22768 7.35291 8.7845 7.05528 9.39069 6.93471C9.99688 6.81413 10.6252 6.87601 11.1962 7.11254C11.7673 7.34906 12.2553 7.7496 12.5987 8.2635C12.9421 8.77741 13.1253 9.38159 13.1253 9.99966C13.1253 10.8285 12.7961 11.6233 12.2101 12.2094C11.624 12.7954 10.8291 13.1247 10.0003 13.1247Z" fill="currentColor"/>
</svg>
