<svg width="24" height="24" viewBox="0 0 24 24" fill="none" xmlns="http://www.w3.org/2000/svg">
<g clip-path="url(#clip0_296_36963)">
<path d="M24.0004 12.7505C24.0004 12.9494 23.9214 13.1402 23.7807 13.2808C23.6401 13.4215 23.4493 13.5005 23.2504 13.5005H21.7504V15.0005C21.7504 15.1994 21.6714 15.3902 21.5307 15.5308C21.3901 15.6715 21.1993 15.7505 21.0004 15.7505C20.8015 15.7505 20.6107 15.6715 20.4701 15.5308C20.3294 15.3902 20.2504 15.1994 20.2504 15.0005V13.5005H18.7504C18.5515 13.5005 18.3607 13.4215 18.2201 13.2808C18.0794 13.1402 18.0004 12.9494 18.0004 12.7505C18.0004 12.5516 18.0794 12.3608 18.2201 12.2202C18.3607 12.0795 18.5515 12.0005 18.7504 12.0005H20.2504V10.5005C20.2504 10.3016 20.3294 10.1108 20.4701 9.97018C20.6107 9.82953 20.8015 9.75051 21.0004 9.75051C21.1993 9.75051 21.3901 9.82953 21.5307 9.97018C21.6714 10.1108 21.7504 10.3016 21.7504 10.5005V12.0005H23.2504C23.4493 12.0005 23.6401 12.0795 23.7807 12.2202C23.9214 12.3608 24.0004 12.5516 24.0004 12.7505ZM18.741 18.2724C18.8044 18.3472 18.8523 18.4339 18.8819 18.5274C18.9116 18.6209 18.9223 18.7193 18.9136 18.817C18.9049 18.9147 18.8769 19.0096 18.8311 19.0964C18.7854 19.1832 18.7229 19.26 18.6473 19.3224C18.573 19.387 18.4865 19.4359 18.3928 19.4663C18.2992 19.4966 18.2004 19.5078 18.1023 19.499C18.0043 19.4903 17.909 19.4618 17.8222 19.4153C17.7354 19.3689 17.6589 19.3054 17.5973 19.2286C16.6803 18.1399 15.5365 17.2646 14.2458 16.6642C12.9552 16.0638 11.5489 15.7527 10.1254 15.7527C8.70193 15.7527 7.29566 16.0638 6.005 16.6642C4.71435 17.2646 3.57051 18.1399 2.65353 19.2286C2.52023 19.3563 2.34454 19.4303 2.16007 19.4366C1.9756 19.4428 1.79531 19.3808 1.6537 19.2624C1.5121 19.144 1.41912 18.9775 1.39257 18.7949C1.36602 18.6122 1.40775 18.4262 1.50978 18.2724C2.87973 16.6266 4.69649 15.4121 6.74103 14.7755C5.56843 14.0409 4.66666 12.9448 4.17189 11.6526C3.67712 10.3604 3.61621 8.94225 3.99837 7.61238C4.38052 6.2825 5.18498 5.11307 6.29028 4.28066C7.39559 3.44824 8.74172 2.99805 10.1254 2.99805C11.5091 2.99805 12.8552 3.44824 13.9605 4.28066C15.0658 5.11307 15.8703 6.2825 16.2525 7.61238C16.6346 8.94225 16.5737 10.3604 16.0789 11.6526C15.5842 12.9448 14.6824 14.0409 13.5098 14.7755C15.5543 15.4121 17.3711 16.6266 18.741 18.2724V18.2724ZM10.1254 14.2505C11.0896 14.2505 12.0321 13.9646 12.8338 13.4289C13.6355 12.8933 14.2603 12.1319 14.6293 11.2411C14.9983 10.3503 15.0948 9.3701 14.9067 8.42445C14.7186 7.47879 14.2543 6.61015 13.5726 5.92837C12.8908 5.24659 12.0221 4.78229 11.0765 4.59418C10.1308 4.40608 9.15062 4.50262 8.25983 4.8716C7.36904 5.24058 6.60767 5.86542 6.072 6.66711C5.53632 7.4688 5.25041 8.41133 5.25041 9.37551C5.25041 10.6684 5.76402 11.9084 6.67826 12.8227C7.5925 13.7369 8.83248 14.2505 10.1254 14.2505V14.2505Z" fill="currentColor"/>
</g>
<defs>
<clipPath id="clip0_296_36963">
<rect width="24" height="24" fill="white"/>
</clipPath>
</defs>
</svg>
