<svg width="24" height="24" viewBox="0 0 24 24" fill="none" xmlns="http://www.w3.org/2000/svg">
<path d="M2.86644 6.68135C2.86644 6.22288 3.00124 5.7747 3.25379 5.3935C3.50634 5.0123 3.8653 4.71518 4.28527 4.53973C4.70525 4.36429 5.16738 4.31838 5.61322 4.40782C6.05906 4.49727 6.4686 4.71804 6.79003 5.04223C7.11147 5.36642 7.33037 5.77945 7.41905 6.22911C7.50774 6.67878 7.46222 7.14486 7.28826 7.56843C7.1143 7.992 6.81971 8.35404 6.44174 8.60875C6.06377 8.86346 5.61941 8.99941 5.16483 8.99941C4.55526 8.99941 3.97065 8.75519 3.53962 8.32047C3.10859 7.88574 2.86644 7.29614 2.86644 6.68135ZM16.6568 6.68135C16.6568 6.22288 16.7916 5.7747 17.0441 5.3935C17.2967 5.0123 17.6556 4.71518 18.0756 4.53973C18.4956 4.36429 18.9577 4.31838 19.4035 4.40782C19.8494 4.49727 20.2589 4.71804 20.5804 5.04223C20.9018 5.36642 21.1207 5.77945 21.2094 6.22911C21.2981 6.67878 21.2525 7.14486 21.0786 7.56843C20.9046 7.992 20.61 8.35404 20.2321 8.60875C19.8541 8.86346 19.4097 8.99941 18.9551 8.99941C18.3456 8.99941 17.761 8.75519 17.3299 8.32047C16.8989 7.88574 16.6568 7.29614 16.6568 6.68135ZM21.3493 15.9536C20.408 17.5983 19.0539 18.9641 17.4233 19.9137C15.7927 20.8633 13.9429 21.3633 12.06 21.3633C10.177 21.3633 8.32729 20.8633 6.69666 19.9137C5.06603 18.9641 3.71199 17.5983 2.77067 15.9536C2.65076 15.7781 2.56811 15.5796 2.52794 15.3703C2.48777 15.1611 2.49094 14.9458 2.53725 14.7379C2.58356 14.5299 2.67201 14.3339 2.79704 14.1621C2.92207 13.9903 3.08098 13.8465 3.26379 13.7396C3.44659 13.6327 3.64933 13.5651 3.85928 13.5411C4.06923 13.517 4.28184 13.537 4.48376 13.5998C4.68567 13.6626 4.87253 13.7668 5.03259 13.9059C5.19264 14.0451 5.32244 14.2161 5.41382 14.4082C6.08863 15.5833 7.05786 16.5588 8.22434 17.237C9.39083 17.9151 10.7136 18.2721 12.06 18.2721C13.4064 18.2721 14.7291 17.9151 15.8956 17.237C17.0621 16.5588 18.0313 15.5833 18.7062 14.4082C18.925 14.088 19.2556 13.8627 19.6319 13.7775C20.0082 13.6922 20.4026 13.7532 20.7362 13.9483C21.0699 14.1434 21.3183 14.4582 21.432 14.8299C21.5456 15.2016 21.5161 15.6029 21.3493 15.9536Z" fill="#575555"/>
</svg>
