<svg width="20" height="20" viewBox="0 0 20 20" fill="none" xmlns="http://www.w3.org/2000/svg">
<path d="M18.3855 8.12403L14.2081 12.3154C14.5644 13.3053 14.7121 14.9631 13.1777 17.0029C13.0704 17.1464 12.9334 17.2649 12.776 17.3506C12.6187 17.4362 12.4447 17.4868 12.266 17.499H12.1777C12.0134 17.4991 11.8508 17.4667 11.699 17.4038C11.5473 17.341 11.4094 17.2488 11.2933 17.1326L7.52299 13.3584L4.19252 16.6912C4.07524 16.8085 3.91618 16.8744 3.75033 16.8744C3.58448 16.8744 3.42542 16.8085 3.30814 16.6912C3.19087 16.5739 3.12498 16.4149 3.12498 16.249C3.12498 16.0832 3.19087 15.9241 3.30814 15.8068L6.64096 12.4764L2.86752 8.70294C2.74349 8.57875 2.647 8.42983 2.58433 8.26589C2.52167 8.10194 2.49424 7.92663 2.50382 7.75137C2.5134 7.57612 2.55978 7.40484 2.63994 7.2487C2.7201 7.09256 2.83225 6.95505 2.96908 6.84512C4.95502 5.24278 6.8558 5.55762 7.68783 5.81856L11.8753 1.61622C11.9914 1.50011 12.1292 1.40801 12.2809 1.34518C12.4326 1.28234 12.5951 1.25 12.7593 1.25C12.9235 1.25 13.0861 1.28234 13.2377 1.34518C13.3894 1.40801 13.5272 1.50011 13.6433 1.61622L18.3847 6.35684C18.6191 6.59114 18.7508 6.9089 18.7509 7.24027C18.7511 7.57165 18.6196 7.88953 18.3855 8.12403Z" fill="currentColor"/>
</svg>
