<svg width="106" height="100" viewBox="0 0 106 100" fill="none" xmlns="http://www.w3.org/2000/svg">
<g opacity="0.8">
<path d="M33.0164 14.9731C33.8642 14.5215 34.6954 14.0349 35.5629 13.6233C39.2107 11.895 43.0563 10.8017 47.0424 10.2353C51.605 9.58694 56.1559 9.74513 60.6706 10.6928C65.6498 11.738 70.2696 13.6614 74.5259 16.4536C78.2146 18.8735 81.4141 21.8309 84.138 25.3029C84.3218 25.5373 84.5963 25.7384 84.4148 26.1367C84.3408 26.2998 84.4489 26.5468 84.4787 26.7988C84.7027 26.7319 84.8878 26.6768 85.1375 26.6022C85.7881 27.5999 86.4453 28.6056 87.1371 29.6669C86.5881 29.7936 86.1289 29.9242 85.6615 29.9904C85.5406 30.0079 85.3485 29.856 85.2619 29.731C84.3993 28.4835 83.61 27.1803 82.6828 25.9848C81.8877 24.9597 80.9647 24.0286 80.0552 23.0982C75.7598 18.7026 70.6952 15.5168 64.8866 13.5275C60.3248 11.966 55.6318 11.3032 50.8134 11.5157C48.1685 11.6323 45.5791 12.0707 43.0024 12.6626C41.2894 13.0561 39.6503 13.6552 38.0432 14.3229C36.4336 14.992 34.8486 15.7513 33.3397 16.6228C31.8192 17.5017 30.3705 18.5195 28.953 19.5614C27.0463 20.9646 25.3666 22.6253 23.7794 24.3832C22.725 25.5508 21.7738 26.7969 20.8976 28.0969C20.6031 28.5345 20.324 28.7686 19.7999 28.5891C19.7176 28.5607 19.621 28.5726 19.5075 28.5646C19.2945 28.9825 19.5721 29.3365 19.6262 29.7098C19.6413 29.8163 19.6671 29.9487 19.62 30.0316C19.1954 30.7951 18.7554 31.5497 18.2958 32.3506C17.9322 32.1038 17.6487 32.3189 17.5271 32.62C17.4691 32.7623 17.7036 33.0238 17.8442 33.3089C16.7543 35.6014 15.7895 38.0754 15.21 40.6765C14.8407 42.3353 14.5894 44.0218 14.2967 45.6971C14.2492 45.9706 14.0898 46.1041 13.92 46.3035C13.5428 46.7479 13.035 46.6186 12.5428 46.8972C12.6278 46.1012 12.6878 45.3774 12.7857 44.6581C13.5284 39.2181 15.2996 34.138 18.1068 29.4216C20.1305 26.0207 22.6071 22.9912 25.5201 20.3187C25.6754 20.1757 25.8482 20.0344 26.0387 19.9497C26.413 19.7837 26.855 19.7139 26.8607 19.1609C26.861 19.1087 26.9639 19.0546 27.0227 19.006C28.8263 17.5252 30.7425 16.208 32.7709 15.0535C32.8496 15.0088 32.9417 14.9856 33.0269 14.9527C33.0136 14.9937 32.9954 15.0339 32.9882 15.0763C32.9619 15.2208 32.9395 15.3653 32.9152 15.5103C33.0572 15.5145 33.2334 15.5724 33.3336 15.5104C33.4783 15.4201 33.5676 15.2412 33.6809 15.1004C33.5755 15.0252 33.4775 14.9122 33.3618 14.8868C33.2564 14.8647 33.1309 14.9401 33.014 14.9708L33.0164 14.9731ZM28.8828 19.1511C29.1641 18.779 29.451 18.4104 29.711 18.0243C29.7266 18.0018 29.5341 17.758 29.4244 17.7464C29.1158 17.7133 28.4203 18.308 28.3455 18.6191C28.2588 18.9813 28.4259 19.156 28.8828 19.1511ZM35.8865 14.3154C36.4323 14.544 36.917 14.4662 37.1689 14.0612C37.2607 13.9139 37.2759 13.6393 37.1979 13.4904C37.1447 13.3909 36.8534 13.351 36.6915 13.3874C36.2301 13.492 36.0018 13.8433 35.8865 14.3154ZM13.3873 44.177C13.8933 44.2574 14.2201 44.0824 14.1979 43.7036C14.1896 43.5529 13.9945 43.3269 13.8446 43.2885C13.5992 43.2257 13.3677 43.6905 13.3873 44.177ZM45.1658 11.7604C45.2705 11.5542 45.3724 11.4255 45.3876 11.2864C45.3929 11.2359 45.1549 11.0861 45.0899 11.1163C44.9616 11.1753 44.8768 11.3285 44.7743 11.4422C44.8804 11.5286 44.9865 11.6151 45.1658 11.7604Z" fill="#276FC1"/>
<path d="M48.9826 89.987C49.1627 89.771 49.3073 89.6306 49.4104 89.4627C49.4835 89.3444 49.4982 89.1912 49.5394 89.0537C49.3713 89.0063 49.1722 88.8778 49.0418 88.9278C48.7951 89.0236 48.546 89.1863 48.3724 89.3857C48.0155 89.7951 47.6294 89.8813 47.0892 89.8041C41.8785 89.0598 36.9948 87.3745 32.4424 84.735C29.7762 83.1891 27.3146 81.3619 25.0754 79.2388C25.0318 79.1977 24.9942 79.1495 24.9764 79.1299C25.3613 78.768 25.7387 78.4146 26.0916 78.0819C27.303 79.0574 28.5412 80.1366 29.862 81.1019C35.7938 85.4364 42.4332 87.8758 49.7539 88.4459C50.2271 88.4827 50.7041 88.4825 51.1765 88.5242C51.4595 88.5489 51.7813 88.4178 51.9398 88.8789C52.0213 89.1169 52.3501 88.9832 52.5566 88.7915C52.6796 88.6768 52.8618 88.5599 53.02 88.5566C56.024 88.4993 58.9825 88.1179 61.901 87.4035C62.0764 87.3601 62.2928 87.4325 62.4782 87.4892C62.7928 87.5853 63.0407 87.585 63.1636 87.2116C63.1899 87.1325 63.2794 87.0446 63.359 87.0167C64.1993 86.7251 65.0439 86.4439 65.888 86.1647C65.9715 86.1369 66.0823 86.1085 66.1531 86.1405C66.442 86.2729 66.5633 86.1302 66.7523 85.9198C66.9323 85.7199 67.2445 85.6289 67.5093 85.5175C71.7695 83.7361 75.5729 81.2515 78.927 78.0791C83.5984 73.6605 86.9475 68.3887 89.0264 62.3048C89.2691 61.5937 89.4741 60.8706 89.7078 60.1161C90.0743 60.2239 90.3531 60.0705 90.3772 59.6952C90.3875 59.5308 90.1624 59.3514 90.0314 59.1608C90.2961 57.4181 90.5704 55.585 90.8624 53.7555C90.8805 53.6451 91.0257 53.5035 91.1391 53.4698C91.5645 53.3451 92.0012 53.2604 92.534 53.1374C92.4419 54.0051 92.3561 54.8136 92.267 55.6532C92.0062 55.6347 91.785 55.6194 91.5202 55.5999C91.4699 56.0912 91.5261 56.5067 91.8608 56.874C91.9497 56.972 92.0009 57.1649 91.9768 57.2984C91.2914 61.0843 90.0719 64.693 88.3381 68.1236C86.0489 72.6531 83.0142 76.6144 79.2325 79.9964C76.1111 82.7871 72.6596 85.0824 68.7958 86.6993C66.8618 87.5088 64.8469 88.1236 62.8674 88.8222C62.7098 88.8775 62.541 88.9004 62.3819 88.9371C62.0345 88.3301 61.9385 88.3408 61.4429 88.8505C61.2342 89.0655 60.9448 89.2754 60.6608 89.3325C56.8828 90.0992 53.0696 90.3613 49.2228 90.0273C49.1668 90.0223 49.1115 90.0085 48.9804 89.9856L48.9826 89.987ZM85.4541 71.2207C85.9972 71.2859 86.2911 71.1242 86.2632 70.7287C86.2525 70.5757 86.0533 70.3525 85.9001 70.312C85.6665 70.2512 85.4245 70.7564 85.4541 71.2207ZM87.8663 65.9737C87.7336 66.3256 87.6278 66.5311 87.5919 66.7489C87.5824 66.8098 87.8607 66.9826 87.8701 66.9738C88.0472 66.786 88.2136 66.5845 88.3497 66.3664C88.3601 66.3498 88.1221 66.18 87.8665 65.9746L87.8663 65.9737ZM46.4276 88.4885C46.0759 88.5678 45.7758 88.674 45.7736 89.0745C45.7732 89.1097 46.0862 89.2109 46.2198 89.1706C46.5433 89.0713 46.7114 88.8609 46.4276 88.4885ZM72.0325 83.8299L72.1217 84.0482C72.338 84.0219 72.5553 83.9955 72.7716 83.9693L72.6801 83.2984C72.6285 83.2838 72.5762 83.2703 72.5245 83.2557C72.3605 83.4471 72.1963 83.6376 72.0323 83.829L72.0325 83.8299Z" fill="#276FC1"/>
<path d="M31.4188 68.9127L31.0587 67.353C31.2284 67.3053 31.383 67.2535 31.5412 67.217C47.3471 63.5679 63.1545 59.9213 78.9579 56.2615C79.4098 56.1571 79.5366 56.2796 79.6202 56.6991C79.8261 57.7341 79.8462 57.7352 78.8174 57.9727C65.6467 61.0126 52.4764 64.0505 39.3055 67.0895C36.8687 67.6519 34.4323 68.2162 31.9957 68.7795C31.8196 68.8202 31.6435 68.8608 31.4188 68.9127ZM48.0367 65.0174C48.5438 64.3856 48.5477 64.1648 48.0801 63.6973C47.4981 64.1113 47.4733 64.6024 48.0367 65.0174ZM39.1803 66.7478C39.4456 66.5197 39.8445 66.4068 39.6711 65.9757C39.6398 65.8976 39.2513 65.8546 39.1406 65.9408C38.867 66.1537 38.8607 66.4461 39.1803 66.7478ZM43.3508 65.3283C43.4029 65.3324 43.4547 65.3356 43.5068 65.3397C43.5361 65.2002 43.6353 65.0029 43.5779 64.9346C43.4916 64.8313 43.2981 64.8172 43.15 64.7661C43.126 64.8057 43.1021 64.8454 43.0792 64.8857C43.1701 65.0335 43.2599 65.1805 43.3508 65.3283Z" fill="#276FC1"/>
<path d="M74.0573 32.6664L25.6506 43.8391L25.3007 42.3236C25.4571 42.2799 25.6252 42.225 25.7968 42.1854C37.2967 39.533 48.7979 36.8822 60.2975 34.229C64.5889 33.2385 68.8816 32.2496 73.1686 31.2402C73.6085 31.1367 73.7805 31.2383 73.8346 31.6732C73.8735 31.9894 73.9723 32.2983 74.0573 32.6664ZM60.3538 35.0463C60.5119 34.8089 60.6149 34.6524 60.719 34.4966C60.5966 34.4339 60.4325 34.2888 60.3586 34.3257C60.1914 34.4089 60.0675 34.5816 59.9267 34.7174C60.0408 34.8058 60.1549 34.8941 60.3531 35.0475L60.3538 35.0463Z" fill="#276FC1"/>
<path d="M84.0621 64.07L84.2146 64.7305C84.3316 64.7291 84.4478 64.7279 84.5867 64.7271C84.5749 64.7867 84.5741 64.8485 84.5506 64.8985C83.5323 67.108 82.2914 69.185 80.8401 71.1343C79.3678 73.1112 77.7174 74.9273 75.862 76.5527C75.5621 76.8153 75.2608 77.0763 74.9475 77.3221C74.6894 77.5239 74.4915 77.8188 74.0455 77.6744C73.8881 77.6235 73.5382 77.8626 73.4146 78.057C72.4346 79.6122 70.7705 80.2342 69.2993 81.1131C68.8884 81.3587 68.4034 81.4753 67.9681 81.6848C67.3413 81.9868 66.7465 82.3621 66.1066 82.632C63.6809 83.6564 61.169 84.402 58.5674 84.8205C57.5024 84.9914 56.4312 85.1439 55.3559 85.229C54.2413 85.3166 53.1191 85.3548 52.002 85.3368C50.9003 85.32 49.7953 85.2442 48.6999 85.1235C47.6047 85.0038 46.5088 84.8444 45.4298 84.6185C40.9659 83.6857 36.8267 81.9622 33.0257 79.4289C30.7292 77.8982 28.6283 76.1366 26.759 74.1034C26.5858 73.915 26.4584 73.6458 26.4071 73.395C26.3488 73.1099 26.2186 72.9845 25.9581 72.8892C25.7307 72.8061 25.4788 72.6785 25.335 72.4946C24.5166 71.4464 23.727 70.3755 22.9198 69.3021C23.63 68.9268 23.7077 68.9477 24.0885 69.494C28.8402 76.3123 35.1958 80.9083 43.1695 83.2159C49.1878 84.9578 55.255 84.9973 61.3012 83.4009C68.2921 81.5551 74.1442 77.8516 78.8476 72.3421C79.1008 72.0448 79.4327 71.8099 79.6592 71.496C80.1838 70.7673 80.7037 70.0311 81.1552 69.2568C82.083 67.6681 82.9651 66.0531 83.8646 64.4483C83.9154 64.3569 83.9607 64.2621 84.0599 64.0686L84.0621 64.07Z" fill="#276FC1"/>
<path d="M61.8455 76.554C60.8738 76.2891 60.0118 76.0767 59.1663 75.8131C58.7298 75.6768 58.4038 75.7075 58.0558 76.0409C57.4047 76.6642 56.7062 77.2378 55.9395 77.9096C55.9117 77.5103 55.8837 77.2049 55.8717 76.8986C55.8432 76.1933 55.8382 75.4873 55.7885 74.7841C55.7785 74.6385 55.6438 74.4525 55.5136 74.3726C54.7142 73.886 53.8999 73.4256 53.0908 72.9545C53.0294 72.9184 52.9741 72.8714 52.8469 72.7795C53.7868 72.4317 54.6502 72.0846 55.5332 71.7973C55.9373 71.6662 56.1156 71.4506 56.1969 71.0403C56.3741 70.1397 56.6048 69.2494 56.8352 68.2635C57.3333 68.8756 57.7883 69.4237 58.2311 69.9803C58.9938 70.9389 58.9903 70.9359 60.1965 70.7987C60.9058 70.7184 61.618 70.6593 62.4362 70.5794C61.8606 71.427 61.3569 72.1926 60.8263 72.9397C60.5964 73.2639 60.5049 73.5315 60.7153 73.9303C61.0644 74.5939 61.33 75.3013 61.6276 75.9919C61.693 76.1437 61.7479 76.2997 61.8462 76.5529L61.8455 76.554ZM60.0782 73.0157C60.2382 72.7826 60.3471 72.6228 60.4568 72.4629C60.3157 72.4007 60.1419 72.255 60.0426 72.296C59.8866 72.3585 59.7815 72.5467 59.6547 72.6822C59.7715 72.7737 59.8873 72.8655 60.0793 73.0164L60.0782 73.0157Z" fill="#276FC1"/>
<path d="M46.1693 22.1485C46.826 22.943 47.442 23.6719 48.0389 24.4167C48.2274 24.6509 48.4017 24.7623 48.7309 24.7205C49.6984 24.5986 50.6728 24.5311 51.7627 24.4312C51.2403 25.2143 50.8199 25.9427 50.3006 26.5915C49.9082 27.0811 49.8808 27.4827 50.1658 28.0283C50.5473 28.7583 50.8369 29.537 51.2108 30.3977C50.4837 30.2044 49.8262 30.1068 49.2358 29.8535C48.2686 29.4398 47.5189 29.5787 46.822 30.3888C46.4072 30.8713 45.8602 31.2402 45.3712 31.6593C45.3616 31.6672 45.342 31.6641 45.2635 31.6766C45.2273 30.8849 45.1261 30.094 45.1728 29.3125C45.2161 28.5821 44.9579 28.1687 44.305 27.8701C43.6658 27.5778 43.0751 27.1795 42.465 26.8246C42.3928 26.7825 42.3322 26.7206 42.2057 26.6199C43.0092 26.3207 43.736 25.9966 44.4946 25.7817C45.1707 25.5905 45.5358 25.2617 45.6269 24.525C45.7247 23.7394 45.9725 22.9722 46.1673 22.148L46.1693 22.1485ZM48.2432 26.8711C48.505 26.7177 48.7593 26.569 48.9259 26.4708C49.0904 26.6338 49.2243 26.8532 49.3132 26.8364C49.4883 26.8036 49.6806 26.6692 49.7884 26.5211C49.876 26.4004 49.8778 26.1952 49.8639 26.0325C49.8532 25.9042 49.7762 25.6935 49.699 25.6791C49.5815 25.6579 49.3607 25.7429 49.3221 25.8381C49.2026 26.1359 48.9981 26.1233 48.7396 26.1271C48.2686 26.1325 48.1266 26.3577 48.2423 26.8713L48.2432 26.8711Z" fill="#276FC1"/>
<path d="M82.1066 30.7939C81.3499 31.05 81.354 31.0472 80.9436 30.4547C80.6908 30.0893 80.4319 29.7263 80.1621 29.3734C79.9095 29.0421 79.5896 28.7387 80.0113 28.155C79.1996 28.4021 78.9908 27.8465 78.6531 27.4827C77.8808 26.6505 77.1046 25.822 76.3877 25.0538C76.3938 24.7974 76.3989 24.5858 76.4038 24.3732C76.1936 24.3772 75.9837 24.382 75.6934 24.3874C74.776 23.6645 73.7865 22.8388 72.7505 22.0779C69.4894 19.6816 65.9073 17.9158 62.0103 16.8436C60.3308 16.382 58.5974 16.1176 56.8857 15.7752C56.5921 15.7169 56.2927 15.7196 56.3452 15.2828C56.353 15.2184 56.2274 15.1375 56.1631 15.0642C56.0961 15.1346 56.0049 15.1945 55.9694 15.2786C55.9286 15.3723 55.9382 15.4877 55.9182 15.6591C55.3757 15.5189 54.7682 15.7776 54.3899 15.3568C54.0444 15.4138 53.7692 15.4925 53.4925 15.4995C52.0889 15.5363 50.685 15.5551 49.287 15.5791C49.3162 15.3572 49.3497 15.1087 49.3835 14.8535C61.9756 13.4799 75.2487 19.8879 82.1066 30.7939Z" fill="#276FC1"/>
<path d="M58.0452 20.6203C58.6471 21.362 59.1769 21.9924 59.6786 22.6444C59.8597 22.8794 60.0444 22.9619 60.3367 22.9285C61.1813 22.8321 62.0296 22.7634 62.9689 22.6755C62.5642 23.2836 62.2337 23.8689 61.8155 24.3816C61.3806 24.9161 61.2647 25.3856 61.6418 26.0189C61.9754 26.578 62.1733 27.2177 62.4751 27.9224C61.7184 27.7236 61.0297 27.5935 60.3797 27.3567C59.7753 27.137 59.3354 27.2196 58.885 27.6913C58.4127 28.1871 57.8568 28.6035 57.2553 29.1263C57.2262 28.6107 57.1335 28.1723 57.1903 27.7545C57.3554 26.539 56.9179 25.7471 55.7415 25.3333C55.3336 25.1895 54.9779 24.8953 54.505 24.6139C55.3467 24.3039 56.0948 24.0147 56.8531 23.7572C57.2163 23.6336 57.431 23.4608 57.5015 23.0445C57.6314 22.2751 57.8394 21.52 58.0461 20.6201L58.0452 20.6203ZM59.2954 26.1491C58.9055 26.3784 58.6983 26.7846 58.8949 26.9638C58.9825 27.0441 59.254 27.0639 59.3284 26.9927C59.6122 26.7215 59.5062 26.4265 59.2954 26.1491Z" fill="#276FC1"/>
<path d="M50.3323 74.2177C49.8115 74.9995 49.3736 75.7016 48.8854 76.366C48.6756 76.6504 48.6972 76.8748 48.8275 77.1604C49.1616 77.8985 49.4796 78.6441 49.8434 79.4777C49.1355 79.2894 48.4869 79.1813 47.8911 78.9415C47.1711 78.6518 46.646 78.7711 46.1235 79.3448C45.6864 79.8248 45.144 80.2098 44.5963 80.6822C44.5639 79.8204 44.5235 79.0268 44.5125 78.2331C44.511 78.1036 44.6729 77.9771 44.6924 77.8399C44.7218 77.6274 44.6935 77.4065 44.6898 77.1893C44.5204 77.2142 44.3514 77.2447 44.1813 77.2621C44.0491 77.2756 43.8876 77.3223 43.7861 77.268C43.1678 76.9349 42.5634 76.5758 41.8587 76.1716C42.5186 75.9226 43.0799 75.6442 43.6748 75.5031C44.4905 75.3101 44.9056 74.874 44.9894 74.0281C45.0463 73.4547 45.2417 72.8949 45.3752 72.3295C45.3778 72.3165 45.3935 72.3063 45.46 72.2255C45.873 72.8952 46.5708 73.3104 46.7716 74.1428C46.8122 74.3107 47.3126 74.4692 47.5951 74.4589C48.4798 74.4253 49.3617 74.3099 50.3332 74.2175L50.3323 74.2177Z" fill="#276FC1"/>
<path d="M65.1578 70.7753C66.0773 70.4333 66.8847 70.1512 67.6746 69.8257C67.8502 69.7539 68.0271 69.5529 68.0911 69.3713C68.2235 68.9976 68.2455 68.5849 68.377 68.2114C68.5079 67.8399 68.7182 67.4966 68.9317 67.0643C69.459 67.7085 69.907 68.2877 70.3949 68.831C70.52 68.9709 70.7738 69.0782 70.9605 69.0673C71.8147 69.0161 72.6666 68.9181 73.6351 68.8253C73.0784 69.6563 72.5829 70.4 72.0775 71.1376C72.0421 71.1893 71.9299 71.2115 71.8552 71.2078C71.2919 71.1824 71.1224 71.4405 71.3698 71.991C71.5928 71.8665 71.8138 71.7416 72.0644 71.6013C72.421 72.4242 72.7621 73.209 73.1409 74.0828C72.4464 73.899 71.7974 73.7938 71.2035 73.5536C70.4822 73.2623 69.9509 73.3877 69.4262 73.9515C68.9917 74.4186 68.4668 74.8014 67.9829 75.2221C67.9348 75.2105 67.8858 75.1991 67.8376 75.1874C67.8833 74.6432 67.9329 74.1 67.9707 73.5547C67.9777 73.4498 67.9486 73.3399 67.92 73.2366C67.8895 73.1251 67.7946 73.0133 67.8071 72.9119C67.8685 72.4237 67.6384 72.1688 67.2164 71.9562C66.5483 71.6204 65.9158 71.2137 65.1585 70.7742L65.1578 70.7753Z" fill="#276FC1"/>
<path d="M20.8789 36.2376C20.7865 36.0219 20.7058 35.832 20.6239 35.6414C20.5352 35.8231 20.4607 36.0128 20.3533 36.1826C20.2672 36.3181 20.1411 36.4278 19.9366 36.493C20.1129 36.0845 20.282 35.673 20.4669 35.2691C21.9237 32.0939 23.8094 29.1979 26.115 26.5756C26.2963 26.3688 26.4603 26.239 26.765 26.2796C27.1243 26.3274 27.4779 26.2686 27.6613 25.8044C27.508 25.7185 27.345 25.6272 27.109 25.4949C33.0618 19.3956 40.2658 15.9109 48.7138 14.9241C48.4063 15.3468 48.1844 15.7914 47.5335 15.8829C42.1842 16.6284 37.2984 18.5817 32.8631 21.6539C29.632 23.8917 26.8771 26.6215 24.5724 29.8095C24.4426 29.9892 24.2217 30.1065 24.0326 30.2383C23.788 30.4086 23.5422 30.5572 23.6939 30.9317C23.7265 31.0114 23.6563 31.1499 23.6032 31.2437C22.9491 32.407 22.3487 33.6063 21.605 34.7097C21.2744 35.2003 21.2834 35.8087 20.8811 36.239L20.8789 36.2376Z" fill="#276FC1"/>
<path d="M34.7547 26.0166C35.3425 26.7425 35.867 27.3457 36.3357 27.9902C36.5644 28.3042 36.8108 28.3507 37.157 28.3087C37.9582 28.2129 38.7625 28.1467 39.678 28.0576C39.1325 28.8717 38.6424 29.6019 38.1539 30.3308C37.4635 29.9518 37.2481 29.9901 36.7494 30.6256C36.4962 30.9476 36.2824 31.3003 36.047 31.6456C36.8765 31.9262 37.4428 31.7225 38.1059 30.8813C38.2595 31.2184 38.3993 31.5245 38.5178 31.7834C38.4215 31.9649 38.3502 32.0989 38.2789 32.2329C38.3973 32.27 38.5192 32.2978 38.632 32.3476C38.7048 32.3801 38.7911 32.4303 38.8233 32.4959C38.9366 32.7285 39.0295 32.9706 39.1755 33.3161C38.454 33.1262 37.7914 33.0194 37.1852 32.7754C36.4871 32.4939 35.9886 32.6468 35.4876 33.1701C35.0354 33.6422 34.5056 34.0404 33.9451 34.5271C33.9028 33.5861 33.8781 32.7207 33.8116 31.8592C33.7981 31.686 33.665 31.4617 33.5187 31.3694C32.8705 30.9598 32.1967 30.5911 31.533 30.2049C31.4466 30.1547 31.367 30.0925 31.2297 29.9981C32.0503 29.695 32.801 29.3966 33.5668 29.143C33.9273 29.0238 34.1126 28.8426 34.187 28.4558C34.3388 27.6624 34.5501 26.8809 34.7542 26.0186L34.7547 26.0166Z" fill="#276FC1"/>
<path d="M25.3111 77.2392C24.9416 77.6307 24.5887 78.0041 24.2105 78.4032C21.8274 76.0223 19.7524 73.3646 17.9772 70.3495C18.5118 70.2261 18.9919 70.1039 19.4774 70.0137C19.56 69.9984 19.7063 70.0954 19.7581 70.1802C21.3253 72.7617 23.2176 75.0872 25.314 77.2518C25.3239 77.2618 25.3261 77.2793 25.3091 77.2387L25.3111 77.2392Z" fill="#276FC1"/>
<path d="M87.6513 54.2777C87.3561 55.7535 87.0934 57.1204 86.8047 58.4809C86.6835 59.0502 86.5206 59.611 86.3441 60.1665C86.2789 60.372 86.1162 60.5442 86.0094 60.7376C85.9459 60.8518 85.845 60.9888 85.8634 61.0973C85.9713 61.7284 85.7503 62.1813 85.2696 62.5994C84.8708 62.9464 84.5712 63.4071 84.1431 63.9182C84.475 63.0397 84.7723 62.282 85.0489 61.5166C85.8227 59.3759 86.3737 57.1756 86.6596 54.918C86.736 54.3184 87.1409 54.4079 87.6522 54.2775L87.6513 54.2777Z" fill="#276FC1"/>
<path d="M19.6935 37.0796C20.0637 37.707 20.2434 37.1413 20.586 36.9977C20.4356 37.3955 20.3073 37.7332 20.1808 38.0667C20.0072 38.0774 19.8478 38.0876 19.5593 38.1049C20.1375 38.6454 19.7968 39.1336 19.6537 39.6282C19.4914 40.188 19.4185 40.7944 19.1503 41.2971C18.8519 41.857 18.9257 42.4514 18.7803 43.0186C18.6294 43.6108 18.5512 44.2232 18.4564 44.829C18.3386 45.5851 18.3462 45.5853 17.5144 45.7005C17.8671 42.7403 18.5947 39.8992 19.6924 37.0789L19.6935 37.0796Z" fill="#276FC1"/>
<path d="M37.5598 47.6195L38.8681 53.2848L37.495 53.6018L37.2693 52.6246L34.5726 53.247L34.3298 52.1955L37.0265 51.5731L36.7723 50.4722L34.2179 51.0618C33.9193 52.9287 32.5374 54.4203 30.1919 55.548L29.4495 54.5337C31.9511 53.3765 32.9952 51.9173 32.8442 50.3886L29.3311 51.1995L29.074 50.0862L34.121 48.9213C34.2024 49.2739 34.2486 49.615 34.2719 49.9418L36.5295 49.4208L36.1867 47.9364L37.5598 47.6195ZM31.8592 56.5051L31.6078 55.4166L38.968 53.7178L39.6479 56.6618L33.6731 58.0408L33.8874 58.9686L40.159 57.521L40.4133 58.6219L32.7685 60.3864L32.063 57.331L38.0377 55.952L37.8463 55.1232L31.8592 56.5051ZM49.0128 44.976L51.5951 56.1583L50.2839 56.4609L47.7016 45.2787L49.0128 44.976ZM41.0391 55.2462C42.4263 53.8902 42.672 51.7098 42.2221 49.7616L42.0507 49.0194L40.1086 49.4676L39.8515 48.3544L44.9233 47.1838L45.1804 48.297L43.3743 48.7139L43.5457 49.4561C43.9813 51.3425 45.0925 53.0794 46.9073 53.6312L46.3251 54.834C45.1508 54.4601 44.2186 53.5548 43.5347 52.3706C43.4574 53.8412 43.0175 55.1805 42.1174 56.0788L41.0391 55.2462ZM44.9866 51.1821L44.7296 50.0688L46.3377 49.6976L45.4864 46.0114L46.7853 45.7117L49.1933 56.1394L47.8945 56.4392L46.5948 50.8109L44.9866 51.1821ZM63.4825 41.6363L66.0648 52.8186L64.7412 53.1241L62.1589 41.9418L63.4825 41.6363ZM55.0621 48.6742C54.4936 46.2126 55.0933 44.4651 56.5544 44.1344C57.4993 43.9098 58.3796 44.3646 59.0454 45.3574L60.5112 45.0191L59.9656 42.6565L61.2645 42.3567L63.6754 52.7968L62.3765 53.0966L61.5624 49.5712L60.0966 49.9095C59.9412 51.0985 59.3446 51.9006 58.3969 52.1129C56.9386 52.456 55.6319 51.1419 55.0621 48.6742ZM56.3238 48.383C56.7156 50.1361 57.3595 50.9777 58.0941 50.8017C58.8377 50.6365 59.0783 49.5908 58.6741 47.8405C58.2714 46.0963 57.5951 45.2557 56.8544 45.4332C56.1169 45.5969 55.9087 46.6417 56.3238 48.383ZM59.5808 46.4065C59.7193 46.7524 59.8402 47.1349 59.9359 47.5493C60.0301 47.9575 60.0878 48.3481 60.1211 48.7182L61.3025 48.4455L60.7683 46.1324L59.5808 46.4065ZM74.3913 39.1185L75.9252 45.761L74.5521 46.0779L73.9209 43.3442L72.0159 43.7839L71.7559 42.6583L73.6609 42.2186L73.0182 39.4354L74.3913 39.1185ZM66.2669 46.8176C67.9239 45.7837 68.5231 44.0624 68.1818 42.5842L68.1618 42.4976L65.8362 43.0344L65.5791 41.9211L71.6157 40.5278L71.8728 41.6411L69.5596 42.175L69.5767 42.2492C69.891 43.6099 71.1111 44.7745 72.9771 44.9562L72.5358 46.2046C71.1955 46.0709 70.1201 45.4201 69.3825 44.4829C69.1681 45.7832 68.4569 46.9636 67.2357 47.7406L66.2669 46.8176ZM68.8994 49.9233C68.5771 48.5841 69.8492 47.4631 72.2057 46.9192C74.5745 46.3724 76.2032 46.8239 76.5194 48.1646C76.8231 49.5081 75.5558 50.6215 73.1883 51.1744C70.8304 51.7121 69.1969 51.2683 68.8994 49.9233ZM70.2601 49.6093C70.4139 50.3034 71.3916 50.4751 72.9427 50.1106C74.5089 49.7556 75.3062 49.1742 75.1463 48.4815C74.9849 47.7826 74.0133 47.6095 72.4485 47.9706C70.896 48.3289 70.0925 48.9118 70.2601 49.6093Z" fill="#276FC1"/>
</g>
</svg>
