<svg width="106" height="100" viewBox="0 0 106 100" fill="none" xmlns="http://www.w3.org/2000/svg">
<g opacity="0.8">
<path d="M33.0164 14.9734C33.8642 14.5218 34.6954 14.0351 35.5629 13.6235C39.2107 11.8953 43.0563 10.802 47.0424 10.2355C51.605 9.58719 56.1559 9.74538 60.6706 10.693C65.6498 11.7382 70.2696 13.6616 74.5259 16.4538C78.2146 18.8737 81.4141 21.8312 84.138 25.3031C84.3218 25.5375 84.5963 25.7386 84.4148 26.1369C84.3408 26.3 84.4489 26.5471 84.4787 26.799C84.7027 26.7321 84.8878 26.6771 85.1375 26.6024C85.7881 27.6002 86.4453 28.6059 87.1371 29.6671C86.5881 29.7938 86.1289 29.9245 85.6615 29.9906C85.5406 30.0081 85.3485 29.8562 85.2619 29.7312C84.3993 28.4838 83.61 27.1806 82.6828 25.985C81.8877 24.9599 80.9647 24.0288 80.0552 23.0984C75.7598 18.7028 70.6952 15.5171 64.8866 13.5277C60.3248 11.9663 55.6318 11.3034 50.8134 11.516C48.1685 11.6325 45.5791 12.071 43.0024 12.6628C41.2894 13.0563 39.6503 13.6555 38.0432 14.3231C36.4336 14.9923 34.8486 15.7515 33.3397 16.623C31.8192 17.502 30.3705 18.5198 28.953 19.5617C27.0463 20.9648 25.3666 22.6256 23.7794 24.3835C22.725 25.5511 21.7738 26.7972 20.8976 28.0971C20.6031 28.5348 20.324 28.7689 19.7999 28.5893C19.7176 28.5609 19.621 28.5728 19.5075 28.5649C19.2945 28.9828 19.5721 29.3367 19.6262 29.7101C19.6413 29.8165 19.6671 29.949 19.62 30.0319C19.1954 30.7953 18.7554 31.55 18.2958 32.3509C17.9322 32.104 17.6487 32.3192 17.5271 32.6203C17.4691 32.7626 17.7036 33.0241 17.8442 33.3092C16.7543 35.6016 15.7895 38.0756 15.21 40.6768C14.8407 42.3356 14.5894 44.0221 14.2967 45.6973C14.2492 45.9708 14.0898 46.1043 13.92 46.3037C13.5428 46.7481 13.035 46.6189 12.5428 46.8974C12.6278 46.1015 12.6878 45.3776 12.7857 44.6583C13.5284 39.2184 15.2996 34.1382 18.1068 29.4218C20.1305 26.021 22.6071 22.9914 25.5201 20.3189C25.6754 20.176 25.8482 20.0347 26.0387 19.9499C26.413 19.7839 26.855 19.7142 26.8607 19.1611C26.861 19.1089 26.9639 19.0548 27.0227 19.0062C28.8263 17.5254 30.7425 16.2082 32.7709 15.0537C32.8496 15.009 32.9417 14.9859 33.0269 14.953C33.0136 14.9939 32.9954 15.0341 32.9882 15.0766C32.9619 15.221 32.9395 15.3656 32.9152 15.5105C33.0572 15.5147 33.2334 15.5726 33.3336 15.5106C33.4783 15.4203 33.5676 15.2414 33.6809 15.1006C33.5755 15.0254 33.4775 14.9125 33.3618 14.887C33.2564 14.8649 33.1309 14.9403 33.014 14.9711L33.0164 14.9734ZM28.8828 19.1513C29.1641 18.7793 29.451 18.4107 29.711 18.0246C29.7266 18.002 29.5341 17.7583 29.4244 17.7466C29.1158 17.7136 28.4203 18.3083 28.3455 18.6194C28.2588 18.9816 28.4259 19.1563 28.8828 19.1513ZM35.8865 14.3157C36.4323 14.5442 36.917 14.4665 37.1689 14.0614C37.2607 13.9141 37.2759 13.6395 37.1979 13.4907C37.1447 13.3911 36.8534 13.3512 36.6915 13.3877C36.2301 13.4923 36.0018 13.8436 35.8865 14.3157ZM13.3873 44.1773C13.8933 44.2576 14.2201 44.0827 14.1979 43.7039C14.1896 43.5532 13.9945 43.3271 13.8446 43.2887C13.5992 43.2259 13.3677 43.6908 13.3873 44.1773ZM45.1658 11.7606C45.2705 11.5545 45.3724 11.4257 45.3876 11.2867C45.3929 11.2362 45.1549 11.0864 45.0899 11.1165C44.9616 11.1755 44.8768 11.3288 44.7743 11.4425C44.8804 11.5289 44.9865 11.6153 45.1658 11.7606Z" fill="#388E3C"/>
<path d="M48.9826 89.9873C49.1627 89.7713 49.3073 89.6308 49.4104 89.4629C49.4835 89.3446 49.4982 89.1915 49.5394 89.054C49.3713 89.0065 49.1722 88.8781 49.0418 88.9281C48.7951 89.0239 48.546 89.1866 48.3724 89.3859C48.0155 89.7953 47.6294 89.8816 47.0892 89.8044C41.8785 89.06 36.9948 87.3748 32.4424 84.7352C29.7762 83.1894 27.3146 81.3621 25.0754 79.239C25.0318 79.1979 24.9942 79.1497 24.9764 79.1301C25.3613 78.7683 25.7387 78.4148 26.0916 78.0822C27.303 79.0576 28.5412 80.1368 29.862 81.1022C35.7938 85.4367 42.4332 87.876 49.7539 88.4461C50.2271 88.4829 50.7041 88.4828 51.1765 88.5245C51.4595 88.5492 51.7813 88.418 51.9398 88.8791C52.0213 89.1172 52.3501 88.9835 52.5566 88.7917C52.6796 88.6771 52.8618 88.5601 53.02 88.5568C56.024 88.4995 58.9825 88.1181 61.901 87.4037C62.0764 87.3604 62.2928 87.4327 62.4782 87.4895C62.7928 87.5856 63.0407 87.5852 63.1636 87.2118C63.1899 87.1328 63.2794 87.0448 63.359 87.017C64.1993 86.7254 65.0439 86.4442 65.888 86.165C65.9715 86.1372 66.0823 86.1088 66.1531 86.1408C66.442 86.2731 66.5633 86.1304 66.7523 85.92C66.9323 85.7201 67.2445 85.6291 67.5093 85.5178C71.7695 83.7363 75.5729 81.2518 78.927 78.0794C83.5984 73.6607 86.9475 68.3889 89.0264 62.305C89.2691 61.594 89.4741 60.8708 89.7078 60.1164C90.0743 60.2242 90.3531 60.0707 90.3772 59.6955C90.3875 59.531 90.1624 59.3517 90.0314 59.1611C90.2961 57.4183 90.5704 55.5853 90.8624 53.7557C90.8805 53.6454 91.0257 53.5038 91.1391 53.47C91.5645 53.3453 92.0012 53.2606 92.534 53.1377C92.4419 54.0054 92.3561 54.8139 92.267 55.6534C92.0062 55.6349 91.785 55.6196 91.5202 55.6002C91.4699 56.0914 91.5261 56.5069 91.8608 56.8742C91.9497 56.9722 92.0009 57.1652 91.9768 57.2987C91.2914 61.0846 90.0719 64.6932 88.3381 68.1239C86.0489 72.6534 83.0142 76.6146 79.2325 79.9966C76.1111 82.7873 72.6596 85.0826 68.7958 86.6996C66.8618 87.509 64.8469 88.1239 62.8674 88.8225C62.7098 88.8778 62.541 88.9006 62.3819 88.9374C62.0345 88.3303 61.9385 88.3411 61.4429 88.8507C61.2342 89.0658 60.9448 89.2757 60.6608 89.3327C56.8828 90.0995 53.0696 90.3616 49.2228 90.0276C49.1668 90.0225 49.1115 90.0087 48.9804 89.9859L48.9826 89.9873ZM85.4541 71.2209C85.9972 71.2861 86.2911 71.1244 86.2632 70.729C86.2525 70.576 86.0533 70.3527 85.9001 70.3123C85.6665 70.2515 85.4245 70.7567 85.4541 71.2209ZM87.8663 65.9739C87.7336 66.3259 87.6278 66.5313 87.5919 66.7491C87.5824 66.8101 87.8607 66.9828 87.8701 66.974C88.0472 66.7862 88.2136 66.5848 88.3497 66.3666C88.3601 66.35 88.1221 66.1803 87.8665 65.9748L87.8663 65.9739ZM46.4276 88.4887C46.0759 88.568 45.7758 88.6743 45.7736 89.0748C45.7732 89.1099 46.0862 89.2112 46.2198 89.1709C46.5433 89.0716 46.7114 88.8612 46.4276 88.4887ZM72.0325 83.8302L72.1217 84.0484C72.338 84.0222 72.5553 83.9957 72.7716 83.9695L72.6801 83.2987C72.6285 83.284 72.5762 83.2705 72.5245 83.2559C72.3605 83.4473 72.1963 83.6378 72.0323 83.8293L72.0325 83.8302Z" fill="#388E3C"/>
<path d="M31.4188 68.9129L31.0587 67.3533C31.2284 67.3056 31.383 67.2538 31.5412 67.2173C47.3471 63.5682 63.1545 59.9216 78.9579 56.2617C79.4098 56.1574 79.5366 56.2798 79.6202 56.6994C79.8261 57.7344 79.8462 57.7354 78.8174 57.9729C65.6467 61.0128 52.4764 64.0507 39.3055 67.0897C36.8687 67.6522 34.4323 68.2164 31.9957 68.7798C31.8196 68.8204 31.6435 68.8611 31.4188 68.9129ZM48.0367 65.0176C48.5438 64.3859 48.5477 64.165 48.0801 63.6976C47.4981 64.1116 47.4733 64.6026 48.0367 65.0176ZM39.1803 66.748C39.4456 66.5199 39.8445 66.407 39.6711 65.9759C39.6398 65.8978 39.2513 65.8548 39.1406 65.941C38.867 66.1539 38.8607 66.4464 39.1803 66.748ZM43.3508 65.3285C43.4029 65.3326 43.4547 65.3358 43.5068 65.3399C43.5361 65.2004 43.6353 65.0031 43.5779 64.9349C43.4916 64.8316 43.2981 64.8174 43.15 64.7663C43.126 64.806 43.1021 64.8456 43.0792 64.886C43.1701 65.0337 43.2599 65.1808 43.3508 65.3285Z" fill="#388E3C"/>
<path d="M74.0573 32.6667L25.6506 43.8394L25.3007 42.3238C25.4571 42.2801 25.6252 42.2252 25.7968 42.1856C37.2967 39.5332 48.7979 36.8825 60.2975 34.2292C64.5889 33.2387 68.8816 32.2498 73.1686 31.2404C73.6085 31.137 73.7805 31.2385 73.8346 31.6735C73.8735 31.9896 73.9723 32.2986 74.0573 32.6667ZM60.3538 35.0466C60.5119 34.8091 60.6149 34.6527 60.719 34.4969C60.5966 34.4341 60.4325 34.289 60.3586 34.326C60.1914 34.4091 60.0675 34.5818 59.9267 34.7177C60.0408 34.806 60.1549 34.8944 60.3531 35.0477L60.3538 35.0466Z" fill="#388E3C"/>
<path d="M84.0621 64.0702L84.2146 64.7308C84.3316 64.7293 84.4478 64.7281 84.5867 64.7273C84.5749 64.7869 84.5741 64.8488 84.5506 64.8987C83.5323 67.1083 82.2914 69.1853 80.8401 71.1345C79.3678 73.1114 77.7174 74.9275 75.862 76.553C75.5621 76.8156 75.2608 77.0766 74.9475 77.3224C74.6894 77.5241 74.4915 77.8191 74.0455 77.6746C73.8881 77.6238 73.5382 77.8628 73.4146 78.0572C72.4346 79.6124 70.7705 80.2344 69.2993 81.1134C68.8884 81.3589 68.4034 81.4756 67.9681 81.6851C67.3413 81.9871 66.7465 82.3623 66.1066 82.6323C63.6809 83.6566 61.169 84.4023 58.5674 84.8208C57.5024 84.9917 56.4312 85.1441 55.3559 85.2293C54.2413 85.3169 53.1191 85.355 52.002 85.337C50.9003 85.3202 49.7953 85.2444 48.6999 85.1238C47.6047 85.004 46.5088 84.8446 45.4298 84.6188C40.9659 83.6859 36.8267 81.9625 33.0257 79.4292C30.7292 77.8985 28.6283 76.1368 26.759 74.1037C26.5858 73.9152 26.4584 73.646 26.4071 73.3953C26.3488 73.1101 26.2186 72.9847 25.9581 72.8894C25.7307 72.8064 25.4788 72.6787 25.335 72.4948C24.5166 71.4467 23.727 70.3758 22.9198 69.3023C23.63 68.927 23.7077 68.9479 24.0885 69.4942C28.8402 76.3126 35.1958 80.9085 43.1695 83.2162C49.1878 84.9581 55.255 84.9976 61.3012 83.4011C68.2921 81.5553 74.1442 77.8519 78.8476 72.3423C79.1008 72.045 79.4327 71.8101 79.6592 71.4962C80.1838 70.7675 80.7037 70.0314 81.1552 69.257C82.083 67.6684 82.9651 66.0533 83.8646 64.4485C83.9154 64.3571 83.9607 64.2623 84.0599 64.0688L84.0621 64.0702Z" fill="#388E3C"/>
<path d="M61.8455 76.5542C60.8738 76.2894 60.0118 76.0769 59.1663 75.8133C58.7298 75.6771 58.4038 75.7078 58.0558 76.0412C57.4047 76.6645 56.7062 77.238 55.9395 77.9098C55.9117 77.5105 55.8837 77.2051 55.8717 76.8989C55.8432 76.1936 55.8382 75.4876 55.7885 74.7843C55.7785 74.6387 55.6438 74.4528 55.5136 74.3728C54.7142 73.8862 53.8999 73.4258 53.0908 72.9547C53.0294 72.9186 52.9741 72.8717 52.8469 72.7797C53.7868 72.432 54.6502 72.0848 55.5332 71.7976C55.9373 71.6664 56.1156 71.4508 56.1969 71.0406C56.3741 70.1399 56.6048 69.2497 56.8352 68.2637C57.3333 68.8758 57.7883 69.4239 58.2311 69.9805C58.9938 70.9391 58.9903 70.9361 60.1965 70.799C60.9058 70.7187 61.618 70.6595 62.4362 70.5797C61.8606 71.4273 61.3569 72.1928 60.8263 72.94C60.5964 73.2642 60.5049 73.5317 60.7153 73.9306C61.0644 74.5941 61.33 75.3016 61.6276 75.9922C61.693 76.1439 61.7479 76.3 61.8462 76.5531L61.8455 76.5542ZM60.0782 73.016C60.2382 72.7828 60.3471 72.6231 60.4568 72.4631C60.3157 72.4009 60.1419 72.2553 60.0426 72.2962C59.8866 72.3587 59.7815 72.547 59.6547 72.6824C59.7715 72.774 59.8873 72.8657 60.0793 73.0167L60.0782 73.016Z" fill="#388E3C"/>
<path d="M46.1693 22.1488C46.826 22.9432 47.442 23.6722 48.0389 24.4169C48.2274 24.6511 48.4017 24.7626 48.7309 24.7207C49.6984 24.5989 50.6728 24.5313 51.7627 24.4314C51.2403 25.2146 50.8199 25.9429 50.3006 26.5917C49.9082 27.0814 49.8808 27.483 50.1658 28.0286C50.5473 28.7586 50.8369 29.5373 51.2108 30.398C50.4837 30.2046 49.8262 30.1071 49.2358 29.8538C48.2686 29.44 47.5189 29.5789 46.822 30.3891C46.4072 30.8716 45.8602 31.2405 45.3712 31.6595C45.3616 31.6674 45.342 31.6644 45.2635 31.6768C45.2273 30.8851 45.1261 30.0942 45.1728 29.3128C45.2161 28.5824 44.9579 28.169 44.305 27.8704C43.6658 27.578 43.0751 27.1798 42.465 26.8248C42.3928 26.7827 42.3322 26.7209 42.2057 26.6202C43.0092 26.321 43.736 25.9968 44.4946 25.7819C45.1707 25.5908 45.5358 25.262 45.6269 24.5253C45.7247 23.7396 45.9725 22.9724 46.1673 22.1483L46.1693 22.1488ZM48.2432 26.8713C48.505 26.718 48.7593 26.5692 48.9259 26.4711C49.0904 26.6341 49.2243 26.8534 49.3132 26.8367C49.4883 26.8038 49.6806 26.6694 49.7884 26.5213C49.876 26.4006 49.8778 26.1954 49.8639 26.0328C49.8532 25.9044 49.7762 25.6938 49.699 25.6793C49.5815 25.6581 49.3607 25.7432 49.3221 25.8384C49.2026 26.1361 48.9981 26.1236 48.7396 26.1273C48.2686 26.1327 48.1266 26.3579 48.2423 26.8715L48.2432 26.8713Z" fill="#388E3C"/>
<path d="M82.1066 30.7941C81.3499 31.0503 81.354 31.0474 80.9436 30.4549C80.6908 30.0896 80.4319 29.7265 80.1621 29.3736C79.9095 29.0423 79.5896 28.7389 80.0113 28.1553C79.1996 28.4024 78.9908 27.8467 78.6531 27.4829C77.8808 26.6507 77.1046 25.8222 76.3877 25.054C76.3938 24.7976 76.3989 24.586 76.4038 24.3735C76.1936 24.3774 75.9837 24.3823 75.6934 24.3877C74.776 23.6648 73.7865 22.8391 72.7505 22.0781C69.4894 19.6819 65.9073 17.9161 62.0103 16.8439C60.3308 16.3822 58.5974 16.1178 56.8857 15.7754C56.5921 15.7171 56.2927 15.7198 56.3452 15.2831C56.353 15.2187 56.2274 15.1377 56.1631 15.0644C56.0961 15.1349 56.0049 15.1948 55.9694 15.2788C55.9286 15.3726 55.9382 15.4879 55.9182 15.6594C55.3757 15.5192 54.7682 15.7779 54.3899 15.3571C54.0444 15.4141 53.7692 15.4928 53.4925 15.4998C52.0889 15.5365 50.685 15.5553 49.287 15.5794C49.3162 15.3575 49.3497 15.109 49.3835 14.8538C61.9756 13.4802 75.2487 19.8882 82.1066 30.7941Z" fill="#388E3C"/>
<path d="M58.0452 20.6205C58.6471 21.3622 59.1769 21.9926 59.6786 22.6446C59.8597 22.8796 60.0444 22.9621 60.3367 22.9288C61.1813 22.8324 62.0296 22.7636 62.9689 22.6757C62.5642 23.2839 62.2337 23.8692 61.8155 24.3818C61.3806 24.9164 61.2647 25.3858 61.6418 26.0192C61.9754 26.5782 62.1733 27.2179 62.4751 27.9227C61.7184 27.7238 61.0297 27.5937 60.3797 27.357C59.7753 27.1372 59.3354 27.2198 58.885 27.6915C58.4127 28.1873 57.8568 28.6038 57.2553 29.1265C57.2262 28.6109 57.1335 28.1726 57.1903 27.7547C57.3554 26.5393 56.9179 25.7473 55.7415 25.3335C55.3336 25.1897 54.9779 24.8955 54.505 24.6141C55.3467 24.3042 56.0948 24.0149 56.8531 23.7575C57.2163 23.6338 57.431 23.461 57.5015 23.0447C57.6314 22.2754 57.8394 21.5202 58.0461 20.6203L58.0452 20.6205ZM59.2954 26.1493C58.9055 26.3787 58.6983 26.7848 58.8949 26.9641C58.9825 27.0443 59.254 27.0642 59.3284 26.993C59.6122 26.7218 59.5062 26.4268 59.2954 26.1493Z" fill="#388E3C"/>
<path d="M50.3323 74.2179C49.8115 74.9998 49.3736 75.7018 48.8854 76.3662C48.6756 76.6507 48.6972 76.8751 48.8275 77.1607C49.1616 77.8987 49.4796 78.6444 49.8434 79.478C49.1355 79.2897 48.4869 79.1816 47.8911 78.9418C47.1711 78.652 46.646 78.7713 46.1235 79.345C45.6864 79.8251 45.144 80.21 44.5963 80.6824C44.5639 79.8207 44.5235 79.0271 44.5125 78.2334C44.511 78.1039 44.6729 77.9774 44.6924 77.8402C44.7218 77.6277 44.6935 77.4067 44.6898 77.1896C44.5204 77.2144 44.3514 77.2449 44.1813 77.2624C44.0491 77.2758 43.8876 77.3226 43.7861 77.2683C43.1678 76.9351 42.5634 76.576 41.8587 76.1718C42.5186 75.9228 43.0799 75.6445 43.6748 75.5034C44.4905 75.3103 44.9056 74.8742 44.9894 74.0283C45.0463 73.455 45.2417 72.8951 45.3752 72.3297C45.3778 72.3168 45.3935 72.3065 45.46 72.2258C45.873 72.8954 46.5708 73.3107 46.7716 74.1431C46.8122 74.3109 47.3126 74.4694 47.5951 74.4592C48.4798 74.4256 49.3617 74.3102 50.3332 74.2177L50.3323 74.2179Z" fill="#388E3C"/>
<path d="M65.1578 70.7756C66.0773 70.4335 66.8847 70.1514 67.6746 69.8259C67.8502 69.7542 68.0271 69.5531 68.0911 69.3715C68.2235 68.9978 68.2455 68.5851 68.377 68.2116C68.5079 67.8402 68.7182 67.4968 68.9317 67.0646C69.459 67.7088 69.907 68.2879 70.3949 68.8312C70.52 68.9711 70.7738 69.0784 70.9605 69.0675C71.8147 69.0164 72.6666 68.9183 73.6351 68.8256C73.0784 69.6565 72.5829 70.4003 72.0775 71.1378C72.0421 71.1896 71.9299 71.2117 71.8552 71.2081C71.2919 71.1826 71.1224 71.4407 71.3698 71.9912C71.5928 71.8668 71.8138 71.7418 72.0644 71.6015C72.421 72.4245 72.7621 73.2093 73.1409 74.083C72.4464 73.8993 71.7974 73.794 71.2035 73.5539C70.4822 73.2625 69.9509 73.388 69.4262 73.9518C68.9917 74.4189 68.4668 74.8017 67.9829 75.2224C67.9348 75.2107 67.8858 75.1993 67.8376 75.1877C67.8833 74.6434 67.9329 74.1002 67.9707 73.555C67.9777 73.45 67.9486 73.3402 67.92 73.2368C67.8895 73.1253 67.7946 73.0136 67.8071 72.9121C67.8685 72.424 67.6384 72.169 67.2164 71.9565C66.5483 71.6206 65.9158 71.2139 65.1585 70.7745L65.1578 70.7756Z" fill="#388E3C"/>
<path d="M20.8789 36.2378C20.7865 36.0222 20.7058 35.8323 20.6239 35.6417C20.5352 35.8233 20.4607 36.013 20.3533 36.1829C20.2672 36.3184 20.1411 36.428 19.9366 36.4933C20.1129 36.0848 20.282 35.6732 20.4669 35.2694C21.9237 32.0941 23.8094 29.1981 26.115 26.5758C26.2963 26.369 26.4603 26.2392 26.765 26.2798C27.1243 26.3277 27.4779 26.2688 27.6613 25.8047C27.508 25.7187 27.345 25.6274 27.109 25.4951C33.0618 19.3958 40.2658 15.9112 48.7138 14.9244C48.4063 15.347 48.1844 15.7917 47.5335 15.8831C42.1842 16.6286 37.2984 18.582 32.8631 21.6541C29.632 23.8919 26.8771 26.6217 24.5724 29.8097C24.4426 29.9894 24.2217 30.1068 24.0326 30.2386C23.788 30.4088 23.5422 30.5575 23.6939 30.932C23.7265 31.0116 23.6563 31.1501 23.6032 31.2439C22.9491 32.4073 22.3487 33.6065 21.605 34.71C21.2744 35.2005 21.2834 35.8089 20.8811 36.2392L20.8789 36.2378Z" fill="#388E3C"/>
<path d="M34.7547 26.0168C35.3425 26.7428 35.867 27.3459 36.3357 27.9904C36.5644 28.3045 36.8108 28.3509 37.157 28.3089C37.9582 28.2131 38.7625 28.1469 39.678 28.0579C39.1325 28.872 38.6424 29.6022 38.1539 30.3311C37.4635 29.952 37.2481 29.9904 36.7494 30.6259C36.4962 30.9478 36.2824 31.3005 36.047 31.6459C36.8765 31.9265 37.4428 31.7228 38.1059 30.8815C38.2595 31.2186 38.3993 31.5247 38.5178 31.7837C38.4215 31.9651 38.3502 32.0991 38.2789 32.2331C38.3973 32.2703 38.5192 32.2981 38.632 32.3479C38.7048 32.3804 38.7911 32.4306 38.8233 32.4961C38.9366 32.7288 39.0295 32.9709 39.1755 33.3163C38.454 33.1264 37.7914 33.0196 37.1852 32.7756C36.4871 32.4941 35.9886 32.6471 35.4876 33.1703C35.0354 33.6425 34.5056 34.0406 33.9451 34.5273C33.9028 33.5863 33.8781 32.7209 33.8116 31.8594C33.7981 31.6862 33.665 31.462 33.5187 31.3696C32.8705 30.96 32.1967 30.5913 31.533 30.2051C31.4466 30.1549 31.367 30.0927 31.2297 29.9984C32.0503 29.6952 32.801 29.3968 33.5668 29.1433C33.9273 29.0241 34.1126 28.8429 34.187 28.456C34.3388 27.6627 34.5501 26.8811 34.7542 26.0188L34.7547 26.0168Z" fill="#388E3C"/>
<path d="M25.3111 77.2394C24.9416 77.6309 24.5887 78.0043 24.2105 78.4035C21.8274 76.0225 19.7524 73.3648 17.9772 70.3497C18.5118 70.2263 18.9919 70.1042 19.4774 70.0139C19.56 69.9986 19.7063 70.0957 19.7581 70.1804C21.3253 72.762 23.2176 75.0874 25.314 77.252C25.3239 77.2621 25.3261 77.2796 25.3091 77.2389L25.3111 77.2394Z" fill="#388E3C"/>
<path d="M87.6513 54.278C87.3561 55.7538 87.0934 57.1206 86.8047 58.4812C86.6835 59.0504 86.5206 59.6113 86.3441 60.1667C86.2789 60.3723 86.1162 60.5444 86.0094 60.7378C85.9459 60.852 85.845 60.989 85.8634 61.0976C85.9713 61.7286 85.7503 62.1816 85.2696 62.5997C84.8708 62.9467 84.5712 63.4073 84.1431 63.9185C84.475 63.0399 84.7723 62.2822 85.0489 61.5169C85.8227 59.3761 86.3737 57.1758 86.6596 54.9183C86.736 54.3186 87.1409 54.4081 87.6522 54.2778L87.6513 54.278Z" fill="#388E3C"/>
<path d="M19.6935 37.0798C20.0637 37.7072 20.2434 37.1415 20.586 36.998C20.4356 37.3958 20.3073 37.7335 20.1808 38.0669C20.0072 38.0776 19.8478 38.0879 19.5593 38.1052C20.1375 38.6457 19.7968 39.1338 19.6537 39.6285C19.4914 40.1882 19.4185 40.7947 19.1503 41.2973C18.8519 41.8573 18.9257 42.4516 18.7803 43.0188C18.6294 43.6111 18.5512 44.2234 18.4564 44.8292C18.3386 45.5854 18.3462 45.5855 17.5144 45.7007C17.8671 42.7405 18.5947 39.8994 19.6924 37.0791L19.6935 37.0798Z" fill="#388E3C"/>
<path d="M37.5598 47.6195L38.8681 53.2848L37.495 53.6018L37.2693 52.6246L34.5726 53.247L34.3298 52.1955L37.0265 51.5731L36.7723 50.4722L34.2179 51.0618C33.9193 52.9287 32.5374 54.4203 30.1919 55.548L29.4495 54.5337C31.9511 53.3765 32.9952 51.9173 32.8442 50.3886L29.3311 51.1995L29.074 50.0862L34.121 48.9213C34.2024 49.2739 34.2486 49.615 34.2719 49.9418L36.5295 49.4208L36.1867 47.9364L37.5598 47.6195ZM31.8592 56.5051L31.6078 55.4166L38.968 53.7178L39.6479 56.6618L33.6731 58.0408L33.8874 58.9686L40.159 57.521L40.4133 58.6219L32.7685 60.3864L32.063 57.331L38.0377 55.952L37.8463 55.1232L31.8592 56.5051ZM49.0128 44.976L51.5951 56.1583L50.2839 56.4609L47.7016 45.2787L49.0128 44.976ZM41.0391 55.2462C42.4263 53.8902 42.672 51.7098 42.2221 49.7616L42.0507 49.0194L40.1086 49.4676L39.8515 48.3544L44.9233 47.1838L45.1804 48.297L43.3743 48.7139L43.5457 49.4561C43.9813 51.3425 45.0925 53.0794 46.9073 53.6312L46.3251 54.834C45.1508 54.4601 44.2186 53.5548 43.5347 52.3706C43.4574 53.8412 43.0175 55.1805 42.1174 56.0788L41.0391 55.2462ZM44.9866 51.1821L44.7296 50.0688L46.3377 49.6976L45.4864 46.0114L46.7853 45.7117L49.1933 56.1394L47.8945 56.4392L46.5948 50.8109L44.9866 51.1821ZM57.3223 43.5663C58.9551 43.1894 60.3279 43.8302 60.6502 45.1694C60.8949 46.2856 60.2527 47.3133 59.0624 47.829L59.2709 48.732C60.192 48.4608 61.1074 48.1648 61.9447 47.8413L62.2874 48.8175C60.0575 49.7687 57.4712 50.4178 55.5772 50.8484L55.1745 49.7818C55.9786 49.5962 56.9173 49.373 57.8997 49.1137L57.6784 48.155C56.3481 48.234 55.3017 47.5961 55.0465 46.4628C54.7304 45.1221 55.6832 43.9446 57.3223 43.5663ZM57.871 54.4622L57.1426 51.3079L58.5157 50.991L58.987 53.032L65.3576 51.5616L65.6147 52.6749L57.871 54.4622ZM56.333 46.1659C56.4906 46.9047 57.2272 47.2168 58.1192 47.0174C59.0146 46.8042 59.5151 46.2067 59.3513 45.4692C59.1709 44.7161 58.4619 44.4107 57.5651 44.6177C56.6744 44.8233 56.1464 45.4142 56.333 46.1659ZM63.2916 50.6835L61.3206 42.1483L62.6937 41.8314L63.5278 45.4434L65.0369 45.095L65.2997 46.2331L63.7906 46.5814L64.6647 50.3665L63.2916 50.6835ZM77.2644 47.6669L77.5272 48.8049L67.3095 51.1632L67.0467 50.0252L69.7557 49.3999L69.3301 47.5568L67.8333 47.9023L66.9906 44.2532L73.4231 42.7686L73.106 41.3955L66.6488 42.8859L66.3917 41.7726L74.2096 39.9682L75.038 43.5554L68.618 45.0372L68.9493 46.4721L75.6292 44.9303L75.8862 46.0436L74.2534 46.4205L74.679 48.2636L77.2644 47.6669ZM71.0917 49.0916L73.3307 48.5748L72.9051 46.7317L70.6661 47.2485L71.0917 49.0916Z" fill="#388E3C"/>
</g>
</svg>
