<svg width="24" height="24" viewBox="0 0 24 24" fill="none" xmlns="http://www.w3.org/2000/svg">
<path d="M19.2802 18.9698C19.3499 19.0395 19.4052 19.1222 19.4429 19.2132C19.4806 19.3043 19.5 19.4019 19.5 19.5004C19.5 19.599 19.4806 19.6965 19.4429 19.7876C19.4052 19.8786 19.3499 19.9614 19.2802 20.031C19.2106 20.1007 19.1278 20.156 19.0368 20.1937C18.9457 20.2314 18.8482 20.2508 18.7496 20.2508C18.6511 20.2508 18.5535 20.2314 18.4624 20.1937C18.3714 20.156 18.2887 20.1007 18.219 20.031L10.719 12.531C10.6493 12.4614 10.5939 12.3787 10.5562 12.2876C10.5185 12.1966 10.499 12.099 10.499 12.0004C10.499 11.9019 10.5185 11.8043 10.5562 11.7132C10.5939 11.6222 10.6493 11.5394 10.719 11.4698L18.219 3.96979C18.3597 3.82906 18.5506 3.75 18.7496 3.75C18.9486 3.75 19.1395 3.82906 19.2802 3.96979C19.421 4.11052 19.5 4.30139 19.5 4.50042C19.5 4.69944 19.421 4.89031 19.2802 5.03104L12.3099 12.0004L19.2802 18.9698ZM4.80993 12.0004L11.7802 5.03104C11.921 4.89031 12 4.69944 12 4.50042C12 4.30139 11.921 4.11052 11.7802 3.96979C11.6395 3.82906 11.4486 3.75 11.2496 3.75C11.0506 3.75 10.8597 3.82906 10.719 3.96979L3.21899 11.4698C3.14926 11.5394 3.09394 11.6222 3.05619 11.7132C3.01845 11.8043 2.99902 11.9019 2.99902 12.0004C2.99902 12.099 3.01845 12.1966 3.05619 12.2876C3.09394 12.3787 3.14926 12.4614 3.21899 12.531L10.719 20.031C10.7887 20.1007 10.8714 20.156 10.9624 20.1937C11.0535 20.2314 11.1511 20.2508 11.2496 20.2508C11.3482 20.2508 11.4457 20.2314 11.5368 20.1937C11.6278 20.156 11.7106 20.1007 11.7802 20.031C11.8499 19.9614 11.9052 19.8786 11.9429 19.7876C11.9806 19.6965 12 19.599 12 19.5004C12 19.4019 11.9806 19.3043 11.9429 19.2132C11.9052 19.1222 11.8499 19.0395 11.7802 18.9698L4.80993 12.0004Z" fill="currentColor"/>
</svg>
