<svg width="24" height="24" viewBox="0 0 24 24" fill="none" xmlns="http://www.w3.org/2000/svg">
<path d="M11.25 13.5005V9.75055C11.25 9.55164 11.329 9.36087 11.4697 9.22022C11.6103 9.07957 11.8011 9.00055 12 9.00055C12.1989 9.00055 12.3897 9.07957 12.5303 9.22022C12.671 9.36087 12.75 9.55164 12.75 9.75055V13.5005C12.75 13.6995 12.671 13.8902 12.5303 14.0309C12.3897 14.1715 12.1989 14.2506 12 14.2506C11.8011 14.2506 11.6103 14.1715 11.4697 14.0309C11.329 13.8902 11.25 13.6995 11.25 13.5005ZM22.2 19.8756C22.0031 20.2184 21.719 20.5031 21.3765 20.7007C21.034 20.8983 20.6454 21.0018 20.25 21.0006H3.74998C3.35458 21.002 2.96583 20.8988 2.62321 20.7015C2.28058 20.5041 1.99629 20.2196 1.79919 19.8768C1.60209 19.534 1.49921 19.1452 1.501 18.7498C1.50279 18.3544 1.60917 17.9665 1.80936 17.6256L10.05 3.37555C10.2473 3.03283 10.5314 2.74816 10.8737 2.55021C11.2161 2.35227 11.6045 2.24805 12 2.24805C12.3954 2.24805 12.7839 2.35227 13.1262 2.55021C13.4686 2.74816 13.7527 3.03283 13.95 3.37555L22.1906 17.6256C22.3923 17.9658 22.4995 18.3537 22.5012 18.7493C22.5028 19.1448 22.3988 19.5336 22.2 19.8756ZM20.8969 18.3756L12.6469 4.12555C12.5807 4.01277 12.4862 3.91925 12.3727 3.85426C12.2592 3.78928 12.1307 3.75509 12 3.75509C11.8692 3.75509 11.7407 3.78928 11.6273 3.85426C11.5138 3.91925 11.4193 4.01277 11.3531 4.12555L3.10311 18.3756C3.03539 18.4889 2.99963 18.6185 2.99963 18.7506C2.99963 18.8826 3.03539 19.0122 3.10311 19.1256C3.16798 19.2398 3.26207 19.3348 3.37575 19.4007C3.48943 19.4666 3.61859 19.501 3.74998 19.5006H20.25C20.3814 19.501 20.5105 19.4666 20.6242 19.4007C20.7379 19.3348 20.832 19.2398 20.8969 19.1256C20.9646 19.0122 21.0003 18.8826 21.0003 18.7506C21.0003 18.6185 20.9646 18.4889 20.8969 18.3756ZM12 15.7506C11.7775 15.7506 11.56 15.8165 11.375 15.9401C11.19 16.0638 11.0458 16.2395 10.9606 16.445C10.8755 16.6506 10.8532 16.8768 10.8966 17.095C10.94 17.3133 11.0472 17.5137 11.2045 17.671C11.3618 17.8284 11.5623 17.9355 11.7805 17.9789C11.9987 18.0223 12.2249 18.0001 12.4305 17.9149C12.6361 17.8298 12.8118 17.6856 12.9354 17.5006C13.059 17.3156 13.125 17.0981 13.125 16.8756C13.125 16.5772 13.0065 16.291 12.7955 16.0801C12.5845 15.8691 12.2984 15.7506 12 15.7506Z" fill="currentColor"/>
</svg>
