<svg width="20" height="20" viewBox="0 0 20 20" fill="none" xmlns="http://www.w3.org/2000/svg">
<path d="M10.0003 6.24966C9.25867 6.24966 8.53364 6.46959 7.91696 6.88165C7.30027 7.2937 6.81963 7.87937 6.5358 8.5646C6.25197 9.24982 6.17771 10.0038 6.3224 10.7312C6.4671 11.4587 6.82425 12.1269 7.3487 12.6513C7.87314 13.1758 8.54133 13.5329 9.26876 13.6776C9.99619 13.8223 10.7502 13.748 11.4354 13.4642C12.1206 13.1804 12.7063 12.6997 13.1184 12.083C13.5304 11.4664 13.7503 10.7413 13.7503 9.99966C13.7493 9.00542 13.3539 8.05219 12.6509 7.34915C11.9478 6.64611 10.9946 6.25069 10.0003 6.24966ZM10.0003 12.4997C9.50589 12.4997 9.02254 12.353 8.61142 12.0783C8.2003 11.8036 7.87987 11.4132 7.69065 10.9564C7.50143 10.4996 7.45192 9.99689 7.54838 9.51193C7.64485 9.02698 7.88295 8.58152 8.23258 8.23189C8.58221 7.88226 9.02767 7.64416 9.51262 7.5477C9.99757 7.45123 10.5002 7.50074 10.9571 7.68996C11.4139 7.87918 11.8043 8.19961 12.079 8.61073C12.3537 9.02186 12.5003 9.50521 12.5003 9.99966C12.5003 10.6627 12.237 11.2986 11.7681 11.7674C11.2993 12.2363 10.6634 12.4997 10.0003 12.4997ZM18.5894 8.37544C18.572 8.28743 18.5358 8.2042 18.4834 8.1314C18.431 8.05861 18.3635 7.99795 18.2855 7.95357L15.955 6.62544L15.9457 3.99888C15.9454 3.90842 15.9255 3.8191 15.8873 3.73709C15.8491 3.65508 15.7936 3.58234 15.7246 3.52388C14.8792 2.80878 13.9057 2.26079 12.8558 1.90903C12.7731 1.88105 12.6855 1.87069 12.5986 1.87863C12.5117 1.88657 12.4274 1.91263 12.3511 1.95513L10.0003 3.26919L7.64722 1.95278C7.57093 1.91005 7.48653 1.88379 7.39946 1.87572C7.31239 1.86764 7.2246 1.87793 7.14175 1.90591C6.09265 2.26025 5.12026 2.81033 4.27613 3.527C4.2072 3.58538 4.15174 3.658 4.11357 3.73986C4.0754 3.82173 4.05543 3.9109 4.05503 4.00122L4.04332 6.63013L1.71285 7.95825C1.63488 8.00264 1.56738 8.06329 1.51494 8.13609C1.4625 8.20888 1.42635 8.29212 1.40894 8.38013C1.19572 9.45192 1.19572 10.5552 1.40894 11.627C1.42635 11.715 1.4625 11.7982 1.51494 11.871C1.56738 11.9438 1.63488 12.0045 1.71285 12.0489L4.04332 13.377L4.05269 16.0036C4.05297 16.094 4.07289 16.1833 4.11106 16.2654C4.14923 16.3474 4.20475 16.4201 4.27378 16.4786C5.11914 17.1937 6.09265 17.7417 7.14253 18.0934C7.22521 18.1214 7.31284 18.1318 7.39976 18.1238C7.48668 18.1159 7.57098 18.0898 7.64722 18.0473L10.0003 16.7301L12.3535 18.0465C12.4466 18.0985 12.5516 18.1254 12.6582 18.1247C12.7264 18.1246 12.7942 18.1135 12.8589 18.0918C13.9079 17.738 14.8803 17.1884 15.7246 16.4723C15.7935 16.4139 15.849 16.3413 15.8871 16.2595C15.9253 16.1776 15.9453 16.0884 15.9457 15.9981L15.9574 13.3692L18.2878 12.0411C18.3658 11.9967 18.4333 11.936 18.4858 11.8632C18.5382 11.7904 18.5743 11.7072 18.5918 11.6192C18.8038 10.5483 18.803 9.44607 18.5894 8.37544ZM17.4175 11.1028L15.1855 12.3723C15.0877 12.4279 15.0067 12.5089 14.9511 12.6067C14.9058 12.6848 14.8582 12.7676 14.8097 12.8458C14.7477 12.9443 14.7147 13.0583 14.7144 13.1747L14.7027 15.6942C14.1027 16.1653 13.4344 16.5421 12.7207 16.8114L10.4691 15.5567C10.3756 15.505 10.2705 15.4781 10.1636 15.4786H9.86441C9.75261 15.4758 9.64209 15.5028 9.5441 15.5567L7.29097 16.8145C6.57575 16.5473 5.90552 16.1724 5.30347 15.7028L5.29488 13.1872C5.29449 13.0705 5.26148 12.9563 5.19957 12.8575C5.15113 12.7793 5.10347 12.7012 5.05894 12.6184C5.00369 12.5191 4.92274 12.4365 4.82457 12.3793L2.59019 11.1067C2.47458 10.3753 2.47458 9.63028 2.59019 8.89888L4.81832 7.627C4.91611 7.5714 4.99708 7.49042 5.05269 7.39263C5.098 7.3145 5.14566 7.23169 5.1941 7.15357C5.2561 7.05505 5.28913 6.94107 5.28941 6.82466L5.30113 4.30513C5.90108 3.834 6.56946 3.45726 7.28316 3.18794L9.5316 4.44263C9.62945 4.49687 9.74007 4.52385 9.85191 4.52075H10.1363C10.2481 4.52347 10.3586 4.49652 10.4566 4.44263L12.7097 3.18482C13.4249 3.45206 14.0952 3.82695 14.6972 4.29653L14.7058 6.81216C14.7062 6.9288 14.7392 7.043 14.8011 7.14185C14.8496 7.21997 14.8972 7.2981 14.9418 7.38091C14.997 7.48019 15.078 7.56277 15.1761 7.61997L17.4105 8.89263C17.5277 9.62459 17.529 10.3704 17.4144 11.1028H17.4175Z" fill="currentColor"/>
</svg>
