<svg width="24" height="24" viewBox="0 0 24 24" fill="none" xmlns="http://www.w3.org/2000/svg">
<path opacity="0.2" d="M11.9997 3C10.1786 2.99947 8.40018 3.55141 6.89936 4.5829C5.39855 5.6144 4.24597 7.07692 3.59386 8.77726C2.94176 10.4776 2.82082 12.3358 3.24702 14.1063C3.67322 15.8768 4.62651 17.4764 5.98095 18.6937C6.54532 17.5824 7.4064 16.649 8.46875 15.997C9.53111 15.345 10.7532 14.9999 11.9997 15C11.258 15 10.533 14.7801 9.91631 14.368C9.29963 13.956 8.81898 13.3703 8.53515 12.6851C8.25132 11.9998 8.17706 11.2458 8.32176 10.5184C8.46645 9.79098 8.8236 9.1228 9.34805 8.59835C9.8725 8.0739 10.5407 7.71675 11.2681 7.57205C11.9955 7.42736 12.7495 7.50162 13.4348 7.78545C14.12 8.06928 14.7057 8.54993 15.1177 9.16661C15.5298 9.7833 15.7497 10.5083 15.7497 11.25C15.7497 12.2446 15.3546 13.1984 14.6514 13.9016C13.9481 14.6049 12.9943 15 11.9997 15C13.2462 14.9999 14.4683 15.345 15.5306 15.997C16.593 16.649 17.4541 17.5824 18.0185 18.6937C19.3729 17.4764 20.3262 15.8768 20.7524 14.1063C21.1786 12.3358 21.0576 10.4776 20.4055 8.77726C19.7534 7.07692 18.6009 5.6144 17.1 4.5829C15.5992 3.55141 13.8208 2.99947 11.9997 3Z" fill="currentColor"/>
<path d="M21.75 11.9992C21.7505 10.3773 21.3464 8.78097 20.5744 7.35467C19.8023 5.92838 18.6866 4.71721 17.3284 3.83087C15.9701 2.94452 14.4122 2.411 12.7958 2.27863C11.1794 2.14625 9.55542 2.4192 8.07107 3.07276C6.58672 3.72631 5.28886 4.73983 4.29502 6.02151C3.30118 7.30319 2.64276 8.81254 2.3794 10.4129C2.11604 12.0132 2.25606 13.654 2.78677 15.1865C3.31748 16.7191 4.22212 18.0951 5.41875 19.1898L5.54063 19.3023C7.32305 20.8788 9.62046 21.749 12 21.749C14.3795 21.749 16.6769 20.8788 18.4594 19.3023L18.5813 19.1898C19.5807 18.2778 20.3788 17.1671 20.9245 15.9289C21.4701 14.6907 21.7513 13.3523 21.75 11.9992V11.9992ZM3.75 11.9992C3.74951 10.663 4.07357 9.3467 4.69431 8.16346C5.31506 6.98022 6.21392 5.96546 7.31359 5.20644C8.41326 4.44743 9.68083 3.96686 11.0073 3.80609C12.3338 3.64531 13.6795 3.80912 14.9286 4.28345C16.1778 4.75777 17.293 5.52841 18.1785 6.52909C19.0639 7.52976 19.6931 8.73054 20.0118 10.0281C20.3306 11.3258 20.3294 12.6814 20.0083 13.9784C19.6873 15.2754 19.056 16.4751 18.1688 17.4742C17.3325 16.2614 16.1544 15.3249 14.7844 14.7836C15.5192 14.2048 16.0554 13.4114 16.3184 12.5138C16.5815 11.6161 16.5582 10.6588 16.252 9.77502C15.9457 8.89119 15.3716 8.12477 14.6096 7.58234C13.8475 7.03991 12.9354 6.74842 12 6.74842C11.0646 6.74842 10.1525 7.03991 9.39043 7.58234C8.62839 8.12477 8.05432 8.89119 7.74805 9.77502C7.44178 10.6588 7.41855 11.6161 7.68157 12.5138C7.94459 13.4114 8.4808 14.2048 9.21563 14.7836C7.84557 15.3249 6.66749 16.2614 5.83125 17.4742C4.48816 15.967 3.74725 14.018 3.75 11.9992V11.9992ZM9 11.2492C9 10.6559 9.17595 10.0758 9.50559 9.58248C9.83524 9.08914 10.3038 8.70462 10.852 8.47756C11.4001 8.25049 12.0033 8.19108 12.5853 8.30684C13.1672 8.42259 13.7018 8.70832 14.1213 9.12787C14.5409 9.54743 14.8266 10.082 14.9424 10.6639C15.0581 11.2459 14.9987 11.8491 14.7716 12.3972C14.5446 12.9454 14.1601 13.414 13.6667 13.7436C13.1734 14.0732 12.5933 14.2492 12 14.2492C11.2051 14.2467 10.4435 13.9299 9.88141 13.3678C9.31934 12.8057 9.00247 12.0441 9 11.2492V11.2492ZM6.94688 18.5148C7.48961 17.6671 8.23691 16.9695 9.11995 16.4863C10.003 16.0032 10.9934 15.7499 12 15.7499C13.0066 15.7499 13.997 16.0032 14.88 16.4863C15.7631 16.9695 16.5104 17.6671 17.0531 18.5148C15.6083 19.6384 13.8303 20.2484 12 20.2484C10.1697 20.2484 8.39167 19.6384 6.94688 18.5148V18.5148Z" fill="currentColor"/>
</svg>
