<svg width="20" height="20" viewBox="0 0 20 20" fill="none" xmlns="http://www.w3.org/2000/svg">
<g clip-path="url(#clip0_830_48148)">
<path d="M11.8753 6.2502C11.8753 6.08444 11.9412 5.92547 12.0584 5.80826C12.1756 5.69105 12.3346 5.6252 12.5003 5.6252H19.3753C19.5411 5.6252 19.7 5.69105 19.8173 5.80826C19.9345 5.92547 20.0003 6.08444 20.0003 6.2502C20.0003 6.41596 19.9345 6.57493 19.8173 6.69214C19.7 6.80935 19.5411 6.8752 19.3753 6.8752H12.5003C12.3346 6.8752 12.1756 6.80935 12.0584 6.69214C11.9412 6.57493 11.8753 6.41596 11.8753 6.2502ZM19.3753 9.3752H12.5003C12.3346 9.3752 12.1756 9.44105 12.0584 9.55826C11.9412 9.67547 11.8753 9.83444 11.8753 10.0002C11.8753 10.166 11.9412 10.3249 12.0584 10.4421C12.1756 10.5594 12.3346 10.6252 12.5003 10.6252H19.3753C19.5411 10.6252 19.7 10.5594 19.8173 10.4421C19.9345 10.3249 20.0003 10.166 20.0003 10.0002C20.0003 9.83444 19.9345 9.67547 19.8173 9.55826C19.7 9.44105 19.5411 9.3752 19.3753 9.3752ZM19.3753 13.1252H14.3753C14.2096 13.1252 14.0506 13.191 13.9334 13.3083C13.8162 13.4255 13.7503 13.5844 13.7503 13.7502C13.7503 13.916 13.8162 14.0749 13.9334 14.1921C14.0506 14.3094 14.2096 14.3752 14.3753 14.3752H19.3753C19.5411 14.3752 19.7 14.3094 19.8173 14.1921C19.9345 14.0749 20.0003 13.916 20.0003 13.7502C20.0003 13.5844 19.9345 13.4255 19.8173 13.3083C19.7 13.191 19.5411 13.1252 19.3753 13.1252ZM8.5386 11.094C9.15888 10.6162 9.61407 9.95625 9.84033 9.2067C10.0666 8.45715 10.0526 7.65558 9.8002 6.91441C9.54785 6.17324 9.06984 5.52964 8.43322 5.07388C7.79659 4.61811 7.03327 4.37305 6.25032 4.37305C5.46736 4.37305 4.70404 4.61811 4.06741 5.07388C3.43079 5.52964 2.95278 6.17324 2.70043 6.91441C2.44808 7.65558 2.43405 8.45715 2.6603 9.2067C2.88656 9.95625 3.34175 10.6162 3.96203 11.094C2.3511 11.776 1.08157 13.1486 0.644846 14.844C0.620993 14.9363 0.618608 15.033 0.637873 15.1264C0.657139 15.2198 0.697543 15.3076 0.755991 15.3831C0.814438 15.4585 0.889376 15.5195 0.97506 15.5615C1.06075 15.6035 1.1549 15.6252 1.25032 15.6252H11.2503C11.3457 15.6252 11.4399 15.6035 11.5256 15.5615C11.6113 15.5195 11.6862 15.4585 11.7446 15.3831C11.8031 15.3076 11.8435 15.2198 11.8628 15.1264C11.882 15.033 11.8796 14.9363 11.8558 14.844C11.4191 13.1479 10.1495 11.7752 8.5386 11.094Z" fill="currentColor"/>
</g>
<defs>
<clipPath id="clip0_830_48148">
<rect width="20" height="20" fill="white"/>
</clipPath>
</defs>
</svg>
