<svg width="24" height="24" viewBox="0 0 24 24" fill="none" xmlns="http://www.w3.org/2000/svg">
<path d="M18 14.2494V9.74944C18 9.55052 18.079 9.35976 18.2197 9.21911C18.3603 9.07846 18.5511 8.99944 18.75 8.99944C18.9489 8.99944 19.1397 9.07846 19.2803 9.21911C19.421 9.35976 19.5 9.55052 19.5 9.74944V14.2494C19.5 14.4483 19.421 14.6391 19.2803 14.7798C19.1397 14.9204 18.9489 14.9994 18.75 14.9994C18.5511 14.9994 18.3603 14.9204 18.2197 14.7798C18.079 14.6391 18 14.4483 18 14.2494ZM21.75 7.49944C21.5511 7.49944 21.3603 7.57846 21.2197 7.71911C21.079 7.85976 21 8.05052 21 8.24944V15.7494C21 15.9483 21.079 16.1391 21.2197 16.2798C21.3603 16.4204 21.5511 16.4994 21.75 16.4994C21.9489 16.4994 22.1397 16.4204 22.2803 16.2798C22.421 16.1391 22.5 15.9483 22.5 15.7494V8.24944C22.5 8.05052 22.421 7.85976 22.2803 7.71911C22.1397 7.57846 21.9489 7.49944 21.75 7.49944ZM20.805 19.7451C20.8726 19.8177 20.9252 19.903 20.9596 19.9961C20.994 20.0892 21.0095 20.1882 21.0054 20.2874C21.0013 20.3866 20.9775 20.4839 20.9354 20.5738C20.8934 20.6637 20.8339 20.7444 20.7605 20.8111C20.687 20.8779 20.601 20.9294 20.5075 20.9627C20.414 20.9959 20.3149 21.0103 20.2158 21.005C20.1167 20.9997 20.0196 20.9747 19.9302 20.9316C19.8408 20.8885 19.7609 20.8281 19.695 20.7538L15.75 16.4141V20.9994C15.7499 21.1398 15.7104 21.2773 15.6361 21.3963C15.5617 21.5153 15.4554 21.6111 15.3293 21.6727C15.2033 21.7343 15.0624 21.7593 14.9228 21.7449C14.7832 21.7304 14.6505 21.6771 14.5397 21.591L7.99219 16.4994H3.75C3.35218 16.4994 2.97064 16.3414 2.68934 16.0601C2.40804 15.7788 2.25 15.3973 2.25 14.9994V8.99944C2.25 8.60161 2.40804 8.22008 2.68934 7.93878C2.97064 7.65747 3.35218 7.49944 3.75 7.49944H7.64531L4.695 4.25381C4.56403 4.10618 4.49653 3.91287 4.50713 3.7158C4.51773 3.51873 4.60558 3.33378 4.75164 3.20105C4.89769 3.06832 5.09017 2.99851 5.28736 3.00675C5.48454 3.01498 5.67053 3.10061 5.805 3.24506L20.805 19.7451ZM14.25 14.7641L9.00937 8.99944H3.75V14.9994H8.25C8.41686 14.9992 8.57897 15.055 8.71031 15.1579L14.25 19.4657V14.7641ZM11.7244 6.49725L14.25 4.5285V10.0101C14.25 10.209 14.329 10.3997 14.4697 10.5404C14.6103 10.681 14.8011 10.7601 15 10.7601C15.1989 10.7601 15.3897 10.681 15.5303 10.5404C15.671 10.3997 15.75 10.209 15.75 10.0101V2.99944C15.7499 2.8591 15.7104 2.72161 15.6361 2.60259C15.5617 2.48357 15.4554 2.38781 15.3293 2.32618C15.2033 2.26455 15.0624 2.23954 14.9228 2.25398C14.7832 2.26842 14.6505 2.32174 14.5397 2.40788L10.8037 5.31412C10.6499 5.43727 10.5507 5.61604 10.5276 5.81177C10.5045 6.00749 10.5593 6.20445 10.6803 6.36004C10.8013 6.51562 10.9786 6.61734 11.174 6.6432C11.3694 6.66905 11.5671 6.61696 11.7244 6.49819V6.49725Z" fill="currentColor"/>
</svg>
