<svg width="20" height="20" viewBox="0 0 20 20" fill="none" xmlns="http://www.w3.org/2000/svg">
<path d="M18.3847 6.35684L13.6433 1.61622C13.5272 1.50011 13.3894 1.40801 13.2377 1.34518C13.086 1.28234 12.9234 1.25 12.7593 1.25C12.5951 1.25 12.4325 1.28234 12.2809 1.34518C12.1292 1.40801 11.9914 1.50011 11.8753 1.61622L7.68545 5.81934C6.85263 5.5584 4.95107 5.24356 2.9667 6.8459C2.82992 6.95589 2.71783 7.09344 2.63774 7.24961C2.55765 7.40579 2.51134 7.57707 2.50184 7.75233C2.49233 7.92758 2.51983 8.10287 2.58256 8.26679C2.64529 8.43071 2.74184 8.57958 2.86591 8.70372L6.64091 12.4772L3.3081 15.8076C3.19083 15.9249 3.12494 16.084 3.12494 16.2498C3.12494 16.4157 3.19083 16.5747 3.3081 16.692C3.42538 16.8093 3.58444 16.8752 3.75029 16.8752C3.91614 16.8752 4.0752 16.8093 4.19248 16.692L7.52295 13.3592L11.2956 17.1318C11.4116 17.2483 11.5494 17.3408 11.7011 17.4039C11.8529 17.467 12.0156 17.4996 12.18 17.4998H12.2683C12.4464 17.4875 12.6199 17.4369 12.7768 17.3516C12.9337 17.2662 13.0704 17.1481 13.1776 17.0053C14.712 14.9662 14.5644 13.3084 14.2081 12.3178L18.3854 8.12481C18.5015 8.00868 18.5935 7.87083 18.6563 7.71913C18.7191 7.56742 18.7513 7.40484 18.7513 7.24066C18.7512 7.07649 18.7188 6.91393 18.6559 6.76229C18.593 6.61064 18.5008 6.47287 18.3847 6.35684ZM17.5003 7.24122L13.0261 11.7303C12.9337 11.823 12.8727 11.9424 12.8518 12.0717C12.831 12.2009 12.8512 12.3335 12.9097 12.4506C13.6487 13.9295 12.769 15.4654 12.18 16.249L3.75029 7.81856C4.69404 7.05762 5.59716 6.85684 6.28779 6.85684C6.72602 6.85079 7.16064 6.93676 7.56357 7.10919C7.68113 7.16802 7.81424 7.18829 7.94398 7.16711C8.07372 7.14593 8.19348 7.08438 8.28623 6.99122L12.7597 2.49981L17.5003 7.24044V7.24122Z" fill="currentColor"/>
</svg>
