<svg width="24" height="24" viewBox="0 0 24 24" fill="none" xmlns="http://www.w3.org/2000/svg">
<path d="M22.8075 6.39732L20.5575 4.18857C20.2763 3.90833 19.8955 3.75098 19.4986 3.75098C19.1016 3.75098 18.7208 3.90833 18.4397 4.18857L9.74997 12.7714L6.31028 9.43388C6.02854 9.15455 5.64761 8.99822 5.25088 8.9991C4.85414 8.99998 4.47391 9.15799 4.19341 9.43857L1.94341 11.6886C1.6626 11.9698 1.50488 12.351 1.50488 12.7484C1.50488 13.1458 1.6626 13.527 1.94341 13.8083L8.65778 20.5583C8.79707 20.6976 8.96245 20.8081 9.14446 20.8835C9.32647 20.9589 9.52155 20.9977 9.71856 20.9977C9.91558 20.9977 10.1107 20.9589 10.2927 20.8835C10.4747 20.8081 10.6401 20.6976 10.7793 20.5583L22.8122 8.52263C22.9517 8.38296 23.0624 8.2171 23.1377 8.03458C23.213 7.85206 23.2516 7.65646 23.2512 7.459C23.2507 7.26154 23.2113 7.06611 23.1352 6.88392C23.059 6.70173 22.9477 6.53637 22.8075 6.39732ZM9.71434 19.4998L2.99997 12.7498L5.24997 10.4998C5.2527 10.5021 5.25521 10.5046 5.25747 10.5073L9.22778 14.3595C9.36794 14.4966 9.55623 14.5734 9.75231 14.5734C9.9484 14.5734 10.1367 14.4966 10.2768 14.3595L19.5056 5.24982L21.75 7.46232L9.71434 19.4998Z" fill="#242424"/>
</svg>
