<svg width="24" height="24" viewBox="0 0 24 24" fill="none" xmlns="http://www.w3.org/2000/svg">
<path d="M19.5 8.5H16.5V6.25C16.5 5.05653 16.0259 3.91193 15.182 3.06802C14.3381 2.22411 13.1935 1.75 12 1.75C10.8065 1.75 9.66193 2.22411 8.81802 3.06802C7.97411 3.91193 7.5 5.05653 7.5 6.25V8.5H4.5C4.10218 8.5 3.72065 8.65804 3.43934 8.93934C3.15804 9.22065 3 9.60218 3 10V20.5C3 20.8978 3.15804 21.2794 3.43934 21.5607C3.72065 21.842 4.10218 22 4.5 22H19.5C19.8978 22 20.2794 21.842 20.5607 21.5607C20.842 21.2794 21 20.8978 21 20.5V10C21 9.60218 20.842 9.22065 20.5607 8.93934C20.2794 8.65804 19.8978 8.5 19.5 8.5ZM9 6.25C9 5.45435 9.31607 4.69128 9.87868 4.12868C10.4413 3.56607 11.2044 3.25 12 3.25C12.7956 3.25 13.5587 3.56607 14.1214 4.12868C14.6839 4.69128 15 5.45435 15 6.25V8.5H9V6.25ZM19.5 20.5H4.5V10H19.5V20.5ZM13.125 15.25C13.125 15.4725 13.059 15.69 12.9354 15.875C12.8118 16.06 12.6361 16.2042 12.4306 16.2893C12.225 16.3745 11.9988 16.3968 11.7805 16.3534C11.5623 16.31 11.3618 16.2028 11.2045 16.0455C11.0472 15.8882 10.94 15.6878 10.8966 15.4695C10.8532 15.2512 10.8755 15.025 10.9606 14.8194C11.0458 14.6139 11.19 14.4382 11.375 14.3146C11.56 14.191 11.7775 14.125 12 14.125C12.2983 14.125 12.5845 14.2436 12.7955 14.4545C13.0064 14.6655 13.125 14.9517 13.125 15.25Z" fill="#242424"/>
</svg>
