<svg width="24" height="24" viewBox="0 0 24 24" fill="none" xmlns="http://www.w3.org/2000/svg">
<path d="M8.99983 20.625C8.70159 20.6237 8.41564 20.506 8.20296 20.2969C8.09808 20.1924 8.01486 20.0682 7.95808 19.9314C7.9013 19.7947 7.87207 19.6481 7.87207 19.5C7.87207 19.3519 7.9013 19.2053 7.95808 19.0686C8.01486 18.9318 8.09808 18.8076 8.20296 18.7031L14.9061 12L8.20296 5.29687C7.99161 5.08553 7.87288 4.79888 7.87288 4.5C7.87288 4.35201 7.90203 4.20546 7.95867 4.06873C8.0153 3.932 8.09831 3.80777 8.20296 3.70312C8.3076 3.59848 8.43184 3.51547 8.56857 3.45883C8.7053 3.4022 8.85184 3.37305 8.99983 3.37305C9.29872 3.37305 9.58536 3.49178 9.79671 3.70312L17.2967 11.2031C17.4016 11.3076 17.4848 11.4318 17.5416 11.5686C17.5984 11.7053 17.6276 11.8519 17.6276 12C17.6276 12.1481 17.5984 12.2947 17.5416 12.4314C17.4848 12.5682 17.4016 12.6924 17.2967 12.7969L9.79671 20.2969C9.58402 20.506 9.29808 20.6237 8.99983 20.625V20.625Z" fill="currentColor"/>
</svg>
