<svg width="24" height="24" viewBox="0 0 24 24" fill="none" xmlns="http://www.w3.org/2000/svg">
<path d="M22.8103 8.523L10.7728 20.5605C10.4915 20.8416 10.1101 20.9995 9.71248 20.9995C9.31482 20.9995 8.93344 20.8416 8.65217 20.5605L1.93779 13.8105C1.65699 13.5293 1.49927 13.1481 1.49927 12.7507C1.49927 12.3532 1.65699 11.972 1.93779 11.6908L3.81279 9.81581C4.09391 9.53586 4.47449 9.37869 4.87123 9.37869C5.26797 9.37869 5.64854 9.53586 5.92967 9.81581L9.74998 13.5208L18.8212 4.56112C19.1024 4.28089 19.4832 4.12354 19.8801 4.12354C20.2771 4.12354 20.6579 4.28089 20.939 4.56112L22.8094 6.393C22.95 6.53238 23.0617 6.69823 23.1379 6.88099C23.2141 7.06374 23.2534 7.25979 23.2535 7.4578C23.2536 7.65582 23.2145 7.8519 23.1384 8.03472C23.0623 8.21754 22.9508 8.38349 22.8103 8.523Z" fill="#242424"/>
</svg>
