<svg width="24" height="24" viewBox="0 0 24 24" fill="none" xmlns="http://www.w3.org/2000/svg">
<mask id="mask0_296_36984" style="mask-type:alpha" maskUnits="userSpaceOnUse" x="12" y="10" width="10" height="10">
<path d="M15.6616 19.8766V17.3165C16.7418 16.5933 17.4608 15.5132 17.6975 14.2383H12.208V10.293H21.814C21.9344 10.96 21.9997 11.6557 21.9997 12.3798C21.9997 15.4847 20.887 18.0999 18.9581 19.8766H15.6616Z" fill="black"/>
</mask>
<g mask="url(#mask0_296_36984)">
<path d="M27.6666 4.625H6.54199V25.5411H27.6666V4.625Z" fill="#3E82F1"/>
</g>
<mask id="mask1_296_36984" style="mask-type:alpha" maskUnits="userSpaceOnUse" x="3" y="14" width="16" height="9">
<path d="M3.09277 16.7267V14.084H6.50041C7.30322 16.4941 9.55117 18.2883 12.2082 18.2883C13.5801 18.2883 14.749 17.9273 15.6618 17.3153L18.9583 19.8753C17.2703 21.4318 14.9621 22.3458 12.2082 22.3458C8.22111 22.3458 4.77164 20.06 3.09277 16.7267Z" fill="black"/>
</mask>
<g mask="url(#mask1_296_36984)">
<path d="M24.6249 8.41797H-2.57324V28.0127H24.6249V8.41797Z" fill="#32A753"/>
</g>
<mask id="mask2_296_36984" style="mask-type:alpha" maskUnits="userSpaceOnUse" x="2" y="7" width="5" height="10">
<path d="M2.00977 12.1471C2.00977 10.5008 2.40347 8.94343 3.09396 7.56641H6.50172V10.2092C6.29771 10.8212 6.1825 11.475 6.1825 12.1471C6.1825 12.8192 6.29771 13.4731 6.50172 14.0851L3.09396 16.7278C2.40347 15.3508 2.00977 13.7923 2.00977 12.1471Z" fill="black"/>
</mask>
<g mask="url(#mask2_296_36984)">
<path d="M12.1692 1.90039H-3.65625V22.3945H12.1692V1.90039Z" fill="#F9BB00"/>
</g>
<mask id="mask3_296_36984" style="mask-type:alpha" maskUnits="userSpaceOnUse" x="3" y="1" width="17" height="10">
<path d="M3.09277 7.56827C4.77164 4.235 8.22111 1.94922 12.2082 1.94922C14.957 1.94922 17.2662 2.95998 19.0328 4.60521L16.1065 7.53048C15.0498 6.52074 13.7055 6.00669 12.2082 6.00669C9.55117 6.00669 7.30322 7.79979 6.50041 10.211L3.09277 7.56827Z" fill="black"/>
</mask>
<g mask="url(#mask3_296_36984)">
<path d="M24.699 -3.71875H-2.57324V15.876H24.699V-3.71875Z" fill="#E74235"/>
</g>
</svg>
