<svg width="20" height="20" viewBox="0 0 20 20" fill="none" xmlns="http://www.w3.org/2000/svg">
<path d="M17.5 9.37442V16.8744C17.5 17.0402 17.4342 17.1992 17.3169 17.3164C17.1997 17.4336 17.0408 17.4994 16.875 17.4994H12.5C12.3342 17.4994 12.1753 17.4336 12.0581 17.3164C11.9408 17.1992 11.875 17.0402 11.875 16.8744V12.8119C11.875 12.729 11.8421 12.6496 11.7835 12.591C11.7249 12.5323 11.6454 12.4994 11.5625 12.4994H8.4375C8.35462 12.4994 8.27513 12.5323 8.21653 12.591C8.15792 12.6496 8.125 12.729 8.125 12.8119V16.8744C8.125 17.0402 8.05915 17.1992 7.94194 17.3164C7.82473 17.4336 7.66576 17.4994 7.5 17.4994H3.125C2.95924 17.4994 2.80027 17.4336 2.68306 17.3164C2.56585 17.1992 2.5 17.0402 2.5 16.8744V9.37442C2.50015 9.04296 2.63195 8.72513 2.86641 8.49083L9.11641 2.24083C9.3508 2.00658 9.66862 1.875 10 1.875C10.3314 1.875 10.6492 2.00658 10.8836 2.24083L17.1336 8.49083C17.368 8.72513 17.4998 9.04296 17.5 9.37442Z" fill="currentColor"/>
</svg>
