<svg width="24" height="24" viewBox="0 0 24 24" fill="none" xmlns="http://www.w3.org/2000/svg">
<path d="M19.5469 11.2977C19.3346 11.5072 19.0483 11.6247 18.75 11.6247C18.4517 11.6247 18.1654 11.5072 17.9531 11.2977L13.125 6.46956V20.2508C13.125 20.5492 13.0065 20.8353 12.7955 21.0463C12.5845 21.2573 12.2984 21.3758 12 21.3758C11.7016 21.3758 11.4155 21.2573 11.2045 21.0463C10.9935 20.8353 10.875 20.5492 10.875 20.2508V6.46956L6.04687 11.2977C5.83553 11.509 5.54888 11.6278 5.25 11.6278C4.95111 11.6278 4.66447 11.509 4.45312 11.2977C4.24178 11.0863 4.12305 10.7997 4.12305 10.5008C4.12305 10.2019 4.24178 9.91528 4.45312 9.70393L11.2031 2.95393C11.3076 2.84905 11.4318 2.76584 11.5686 2.70906C11.7053 2.65228 11.8519 2.62305 12 2.62305C12.1481 2.62305 12.2947 2.65228 12.4314 2.70906C12.5682 2.76584 12.6924 2.84905 12.7969 2.95393L19.5469 9.70393C19.6518 9.80845 19.735 9.93264 19.7918 10.0694C19.8485 10.2061 19.8778 10.3527 19.8778 10.5008C19.8778 10.6489 19.8485 10.7955 19.7918 10.9322C19.735 11.069 19.6518 11.1932 19.5469 11.2977V11.2977Z" fill="currentColor"/>
</svg>
