<svg width="24" height="24" viewBox="0 0 24 24" fill="none" xmlns="http://www.w3.org/2000/svg">
<path opacity="0.2" d="M20.4656 8.78429L18 11.2499L12.75 5.99992L15.2156 3.53429C15.2854 3.46343 15.3686 3.40715 15.4603 3.36874C15.5521 3.33033 15.6505 3.31055 15.75 3.31055C15.8495 3.31055 15.9479 3.33033 16.0397 3.36874C16.1314 3.40715 16.2146 3.46343 16.2844 3.53429L20.4656 7.71554C20.5365 7.78533 20.5928 7.86851 20.6312 7.96025C20.6696 8.052 20.6894 8.15046 20.6894 8.24992C20.6894 8.34938 20.6696 8.44784 20.6312 8.53958C20.5928 8.63132 20.5365 8.71451 20.4656 8.78429V8.78429Z" fill="currentColor"/>
<path d="M21 7.19118L16.8094 3.00056C16.6708 2.86053 16.5058 2.74938 16.3239 2.67351C16.1421 2.59765 15.947 2.55859 15.75 2.55859C15.553 2.55859 15.3579 2.59765 15.1761 2.67351C14.9942 2.74938 14.8292 2.86053 14.6906 3.00056L3.44063 14.2506C3.30084 14.3893 3.18993 14.5543 3.1143 14.7362C3.03867 14.918 2.99983 15.113 3 15.3099V19.5006C3 19.8984 3.15804 20.2799 3.43934 20.5612C3.72064 20.8425 4.10218 21.0006 4.5 21.0006H8.69062C8.88756 21.0007 9.08257 20.9619 9.26441 20.8863C9.44624 20.8106 9.61128 20.6997 9.75 20.5599L21 9.30993C21.2783 9.02754 21.4342 8.64701 21.4342 8.25056C21.4342 7.85411 21.2783 7.47358 21 7.19118V7.19118ZM4.80938 15.0006L12.75 7.05993L14.3156 8.62556L6.375 16.5662L4.80938 15.0006ZM4.5 16.8099L7.19063 19.5006H4.5V16.8099ZM9 19.1912L7.43438 17.6256L15.375 9.68493L16.9406 11.2506L9 19.1912ZM18 10.1912L13.8094 6.00056L15.75 4.05993L19.9406 8.25056L18 10.1912Z" fill="currentColor"/>
</svg>
