<svg width="24" height="24" viewBox="0 0 24 24" fill="none" xmlns="http://www.w3.org/2000/svg">
<path d="M14.9998 20.625C14.7016 20.6237 14.4156 20.506 14.203 20.2969L6.70296 12.7969C6.59808 12.6924 6.51486 12.5682 6.45808 12.4314C6.4013 12.2947 6.37207 12.1481 6.37207 12C6.37207 11.8519 6.4013 11.7053 6.45808 11.5686C6.51486 11.4318 6.59808 11.3076 6.70296 11.2031L14.203 3.70312C14.4143 3.49178 14.7009 3.37305 14.9998 3.37305C15.1478 3.37305 15.2944 3.4022 15.4311 3.45883C15.5678 3.51547 15.6921 3.59848 15.7967 3.70312C15.9014 3.80777 15.9844 3.932 16.041 4.06873C16.0976 4.20546 16.1268 4.35201 16.1268 4.5C16.1268 4.64799 16.0976 4.79454 16.041 4.93126C15.9844 5.06799 15.9014 5.19223 15.7967 5.29687L9.09358 12L15.7967 18.7031C15.9016 18.8076 15.9848 18.9318 16.0416 19.0686C16.0984 19.2053 16.1276 19.3519 16.1276 19.5C16.1276 19.6481 16.0984 19.7947 16.0416 19.9314C15.9848 20.0682 15.9016 20.1924 15.7967 20.2969C15.584 20.506 15.2981 20.6237 14.9998 20.625V20.625Z" fill="currentColor"/>
</svg>
