<svg width="24" height="24" viewBox="0 0 24 24" fill="none" xmlns="http://www.w3.org/2000/svg">
<path opacity="0.2" d="M19.8566 12.4785C19.8848 12.1598 19.8566 11.5223 19.8566 11.5223L21.4129 9.45039C21.1951 8.64357 20.8737 7.86836 20.4566 7.14414L17.8973 6.77852C17.6785 6.54727 17.4535 6.32227 17.2223 6.10352L16.8566 3.54414C16.1329 3.12617 15.3576 2.80469 14.5504 2.58789L12.4785 4.14414C12.1604 4.11601 11.8404 4.11601 11.5223 4.14414L9.45039 2.58789C8.64357 2.8057 7.86836 3.12712 7.14414 3.54414L6.77852 6.10352C6.54727 6.32227 6.32227 6.54727 6.10352 6.77852L3.54414 7.14414C3.12617 7.86789 2.80469 8.64322 2.58789 9.45039L4.14414 11.5223C4.11602 11.841 4.14414 12.4785 4.14414 12.4785L2.58789 14.5504C2.8057 15.3572 3.12712 16.1324 3.54414 16.8566L6.10352 17.2223C6.32227 17.4598 6.54727 17.6848 6.77852 17.8973L7.14414 20.4566C7.86789 20.8746 8.64322 21.1961 9.45039 21.4129L11.5223 19.8566C11.8404 19.8848 12.1604 19.8848 12.4785 19.8566L14.5504 21.4129C15.3572 21.1951 16.1324 20.8737 16.8566 20.4566L17.2223 17.8973C17.4566 17.6816 17.8973 17.2223 17.8973 17.2223L20.4566 16.8566C20.8746 16.1329 21.1961 15.3576 21.4129 14.5504L19.8566 12.4785ZM12.0004 16.5004C11.1104 16.5004 10.2403 16.2365 9.50032 15.742C8.7603 15.2475 8.18353 14.5447 7.84293 13.7225C7.50234 12.9002 7.41322 11.9954 7.58686 11.1225C7.76049 10.2496 8.18907 9.44775 8.81841 8.81841C9.44775 8.18907 10.2496 7.76049 11.1225 7.58686C11.9954 7.41322 12.9002 7.50234 13.7225 7.84293C14.5447 8.18353 15.2475 8.7603 15.742 9.50032C16.2365 10.2403 16.5004 11.1104 16.5004 12.0004C16.5004 13.1939 16.0263 14.3385 15.1824 15.1824C14.3385 16.0263 13.1939 16.5004 12.0004 16.5004Z" fill="currentColor"/>
<path d="M11.9999 6.75087C10.9615 6.75087 9.94651 7.05878 9.08315 7.63566C8.2198 8.21254 7.54689 9.03247 7.14953 9.99179C6.75217 10.9511 6.6482 12.0067 6.85077 13.0251C7.05335 14.0435 7.55336 14.979 8.28759 15.7132C9.02181 16.4474 9.95727 16.9474 10.9757 17.15C11.9941 17.3526 13.0497 17.2486 14.009 16.8512C14.9683 16.4539 15.7882 15.781 16.3651 14.9176C16.942 14.0543 17.2499 13.0392 17.2499 12.0009C17.2499 10.6085 16.6968 9.27313 15.7122 8.28856C14.7276 7.304 13.3923 6.75087 11.9999 6.75087ZM11.9999 15.7509C11.2582 15.7509 10.5332 15.5309 9.91651 15.1189C9.29982 14.7068 8.81918 14.1212 8.53535 13.4359C8.25152 12.7507 8.17726 11.9967 8.32195 11.2693C8.46665 10.5419 8.8238 9.87367 9.34825 9.34922C9.87269 8.82478 10.5409 8.46762 11.2683 8.32293C11.9957 8.17823 12.7497 8.2525 13.435 8.53632C14.1202 8.82015 14.7059 9.3008 15.1179 9.91749C15.53 10.5342 15.7499 11.2592 15.7499 12.0009C15.7499 12.9954 15.3548 13.9493 14.6515 14.6525C13.9483 15.3558 12.9945 15.7509 11.9999 15.7509ZM22.0124 14.1009L20.6155 12.2446C20.6249 12.0759 20.6155 11.8977 20.6155 11.7665L22.0124 9.90087C22.0819 9.81008 22.1291 9.70427 22.1502 9.59193C22.1714 9.47958 22.1659 9.36384 22.1343 9.254C21.898 8.38968 21.5547 7.55824 21.1124 6.779C21.0553 6.68001 20.9769 6.59499 20.8828 6.53012C20.7888 6.46525 20.6815 6.42217 20.5686 6.404L18.2718 6.07587L17.9249 5.729L17.5968 3.43212C17.5786 3.31932 17.5355 3.21198 17.4706 3.11792C17.4058 3.02386 17.3208 2.94544 17.2218 2.88837C16.4425 2.44605 15.6111 2.10277 14.7468 1.8665C14.6369 1.83484 14.5212 1.82937 14.4088 1.85053C14.2965 1.8717 14.1907 1.91891 14.0999 1.98837L12.2436 3.37587H11.7561L9.8999 1.98837C9.8091 1.91891 9.70329 1.8717 9.59095 1.85053C9.47861 1.82937 9.36287 1.83484 9.25302 1.8665C8.3887 2.10277 7.55727 2.44605 6.77802 2.88837C6.67904 2.94544 6.59402 3.02386 6.52915 3.11792C6.46428 3.21198 6.42119 3.31932 6.40302 3.43212L6.0749 5.729L5.72802 6.07587L3.43115 6.404C3.31834 6.42217 3.211 6.46525 3.11694 6.53012C3.02288 6.59499 2.94447 6.68001 2.8874 6.779C2.44507 7.55824 2.10179 8.38968 1.86552 9.254C1.83386 9.36384 1.82839 9.47958 1.84956 9.59193C1.87072 9.70427 1.91793 9.81008 1.9874 9.90087L3.38427 11.7571V12.2352L1.9874 14.1009C1.91793 14.1917 1.87072 14.2975 1.84956 14.4098C1.82839 14.5222 1.83386 14.6379 1.86552 14.7477C2.10179 15.6121 2.44507 16.4435 2.8874 17.2227C2.94447 17.3217 3.02288 17.4068 3.11694 17.4716C3.211 17.5365 3.31834 17.5796 3.43115 17.5977L5.72802 17.9259L6.0749 18.2727L6.40302 20.5696C6.42119 20.6824 6.46428 20.7898 6.52915 20.8838C6.59402 20.9779 6.67904 21.0563 6.77802 21.1134C7.55727 21.5557 8.3887 21.899 9.25302 22.1352C9.31701 22.1538 9.38328 22.1632 9.4499 22.1634C9.61251 22.1655 9.77108 22.1126 9.8999 22.0134L11.7561 20.6259H12.2436L14.0999 22.0134C14.1907 22.0828 14.2965 22.13 14.4088 22.1512C14.5212 22.1724 14.6369 22.1669 14.7468 22.1352C15.6111 21.899 16.4425 21.5557 17.2218 21.1134C17.3208 21.0563 17.4058 20.9779 17.4706 20.8838C17.5355 20.7898 17.5786 20.6824 17.5968 20.5696L17.9249 18.2634C18.0374 18.1509 18.1686 18.029 18.2624 17.9259L20.5686 17.5977C20.6815 17.5796 20.7888 17.5365 20.8828 17.4716C20.9769 17.4068 21.0553 17.3217 21.1124 17.2227C21.5547 16.4435 21.898 15.6121 22.1343 14.7477C22.1659 14.6379 22.1714 14.5222 22.1502 14.4098C22.1291 14.2975 22.0819 14.1917 22.0124 14.1009ZM19.978 16.1634L17.7936 16.4727C17.625 16.5004 17.4702 16.5827 17.353 16.7071C17.2405 16.829 16.8936 17.1852 16.7249 17.3352C16.588 17.4529 16.4981 17.616 16.4718 17.7946L16.1624 19.979C15.6954 20.2283 15.2057 20.4323 14.6999 20.5884L12.928 19.2571C12.7854 19.1506 12.6084 19.1005 12.4311 19.1165H11.5686C11.3913 19.1005 11.2144 19.1506 11.0718 19.2571L9.2999 20.5884C8.79409 20.4323 8.30437 20.2283 7.8374 19.979L7.52802 17.7946C7.50169 17.616 7.41181 17.4529 7.2749 17.3352C7.05796 17.1464 6.85435 16.9428 6.66552 16.7259C6.54785 16.589 6.38475 16.4991 6.20615 16.4727L4.02177 16.1634C3.77644 15.6946 3.57254 15.2052 3.4124 14.7009L4.74365 12.929C4.84017 12.7916 4.8925 12.6281 4.89365 12.4602C4.88427 12.2915 4.8749 11.804 4.88427 11.5696C4.90027 11.3923 4.85018 11.2154 4.74365 11.0727L3.4124 9.30087C3.57254 8.79656 3.77644 8.3072 4.02177 7.83837L6.20615 7.529C6.38475 7.50266 6.54785 7.41279 6.66552 7.27587C6.85435 7.05894 7.05796 6.85532 7.2749 6.6665C7.41181 6.54883 7.50169 6.38572 7.52802 6.20712L7.8374 4.02275C8.30622 3.77742 8.79558 3.57352 9.2999 3.41337L11.0718 4.74462C11.2144 4.85116 11.3913 4.90124 11.5686 4.88525C11.8499 4.87587 12.1499 4.87587 12.4311 4.88525C12.6084 4.90124 12.7854 4.85116 12.928 4.74462L14.6999 3.41337C15.2057 3.56943 15.6954 3.77349 16.1624 4.02275L16.4718 6.20712C16.4981 6.38572 16.588 6.54883 16.7249 6.6665C16.9418 6.85532 17.1454 7.05894 17.3343 7.27587C17.4519 7.41279 17.615 7.50266 17.7936 7.529L19.978 7.83837C20.2273 8.30534 20.4313 8.79507 20.5874 9.30087L19.2561 11.0727C19.1596 11.2101 19.1073 11.3736 19.1061 11.5415C19.1155 11.7102 19.1249 12.1977 19.1155 12.4321C19.0995 12.6094 19.1496 12.7864 19.2561 12.929L20.5874 14.7009C20.4313 15.2067 20.2273 15.6964 19.978 16.1634Z" fill="currentColor"/>
</svg>
