<svg width="24" height="24" viewBox="0 0 24 24" fill="none" xmlns="http://www.w3.org/2000/svg">
<path d="M19.5 16.1258C19.2018 16.1245 18.9158 16.0068 18.7031 15.7977L12 9.09456L5.29687 15.7977C5.08553 16.009 4.79888 16.1278 4.5 16.1278C4.20111 16.1278 3.91447 16.009 3.70312 15.7977C3.49178 15.5863 3.37305 15.2997 3.37305 15.0008C3.37305 14.7019 3.49178 14.4153 3.70312 14.2039L11.2031 6.70393C11.3076 6.59905 11.4318 6.51584 11.5686 6.45906C11.7053 6.40228 11.8519 6.37305 12 6.37305C12.1481 6.37305 12.2947 6.40228 12.4314 6.45906C12.5682 6.51584 12.6924 6.59905 12.7969 6.70393L20.2969 14.2039C20.4018 14.3084 20.485 14.4326 20.5418 14.5694C20.5985 14.7061 20.6278 14.8527 20.6278 15.0008C20.6278 15.1489 20.5985 15.2955 20.5418 15.4322C20.485 15.569 20.4018 15.6932 20.2969 15.7977C20.0842 16.0068 19.7982 16.1245 19.5 16.1258V16.1258Z" fill="currentColor"/>
</svg>
