<svg width="24" height="24" viewBox="0 0 24 24" fill="none" xmlns="http://www.w3.org/2000/svg">
<g clip-path="url(#clip0_296_36991)">
<path fill-rule="evenodd" clip-rule="evenodd" d="M8.96689 7.64567C9.93285 5.47272 12.7905 4.75899 13.6004 4.6187C13.6299 4.61358 13.6591 4.60829 13.688 4.60305C14.1708 4.51557 14.5794 4.44152 15.2193 5.38159C15.5923 5.92949 15.5785 6.29129 15.4905 6.50598C15.4185 6.68171 15.2968 6.75888 15.2968 6.75888C15.4075 6.84218 15.4904 6.95652 15.5347 7.08708C15.5426 7.11048 15.5492 7.1342 15.5546 7.15815C15.579 7.26782 15.576 7.38216 15.5453 7.49105C15.3887 8.44799 14.0576 7.51665 14.0576 7.51665C13.9029 7.67189 13.7322 7.81055 13.5482 7.93035C13.0787 8.28005 11.356 8.04709 11.356 8.04709C10.6497 9.05119 10.2343 10.2278 10.155 11.4494C10.187 12.3474 10.2767 13.2421 10.4234 14.128C10.4962 14.5677 10.5831 15.0052 10.6839 15.4399C10.6839 15.4399 11.1895 15.1006 11.8248 14.7777C12.4015 14.4845 13.085 14.205 13.5942 14.205C13.8778 14.1867 14.1618 14.2325 14.4249 14.339C14.688 14.4454 14.9232 14.6097 15.1129 14.8194C15.1129 14.8194 18.313 13.053 19.6829 13.053C20.4071 13.053 21.1971 13.4164 21.781 13.759C22.3016 14.0645 22.6583 14.3535 22.6583 14.3535C22.6583 14.3535 22.8422 14.0866 23.1591 13.746C23.3662 13.5232 23.6302 13.2689 23.9367 13.0371C24.2849 12.7737 24.6879 12.5393 25.1248 12.413C25.1891 12.8143 25.2237 13.2481 25.2259 13.7047C25.24 16.5728 27.3317 21.7031 24.0874 23.9999C23.8694 24.1542 19.9706 24.0875 19.9706 24.0875C19.9706 24.0875 19.9706 23.8248 19.6633 23.2992C19.6633 23.2992 18.7568 21.7247 18.1469 20.5753C17.8561 20.0271 17.6327 19.5756 17.6074 19.4377C17.6074 19.4377 17.304 19.6752 16.4382 19.9129C15.5719 20.1506 14.1426 20.3885 11.8906 20.3885C9.68082 20.4382 7.49861 19.8945 5.57517 18.8151C5.40016 18.7101 5.26079 18.5557 5.17491 18.3717C5.08904 18.1877 5.06059 17.9825 5.09322 17.7824C5.32094 16.287 5.68276 14.8148 6.17438 13.3832C6.72046 11.8847 7.50324 10.4344 8.13517 9.26364C8.47699 8.63035 8.77468 8.07883 8.96689 7.64567Z" fill="#C7C7C7"/>
</g>
<defs>
<clipPath id="clip0_296_36991">
<rect width="24" height="24" fill="white"/>
</clipPath>
</defs>
</svg>
