<svg width="24" height="24" viewBox="0 0 24 24" fill="none" xmlns="http://www.w3.org/2000/svg">
<path opacity="0.2" d="M5.26868 9.75016C5.26618 8.86067 5.44001 7.9795 5.7801 7.15758C6.1202 6.33567 6.61982 5.58931 7.2501 4.96165C7.88038 4.33399 8.62881 3.83747 9.45213 3.5008C10.2754 3.16412 11.1573 2.99397 12.0468 3.00016C15.7593 3.02829 18.7312 6.11266 18.7312 9.83454V10.5002C18.7312 13.8564 19.4343 15.8064 20.0531 16.8658C20.1211 16.9798 20.1577 17.1099 20.159 17.2427C20.1603 17.3755 20.1264 17.5063 20.0606 17.6217C19.9948 17.7371 19.8995 17.8329 19.7845 17.8994C19.6696 17.9659 19.539 18.0007 19.4062 18.0002H4.59368C4.46087 18.0007 4.3303 17.9659 4.21532 17.8994C4.10035 17.8329 4.0051 17.7371 3.93931 17.6217C3.87351 17.5063 3.83954 17.3755 3.84086 17.2427C3.84218 17.1099 3.87874 16.9798 3.94681 16.8658C4.56556 15.8064 5.26868 13.8564 5.26868 10.5002V9.75016Z" fill="currentColor"/>
<path d="M20.7002 16.4906C20.147 15.5344 19.4814 13.7156 19.4814 10.5V9.83438C19.4814 5.68125 16.1533 2.27813 12.0564 2.25H12.0002C11.0165 2.25123 10.0427 2.4462 9.13434 2.82378C8.22601 3.20135 7.40094 3.75414 6.70624 4.45058C6.01154 5.14702 5.46082 5.97347 5.08552 6.88275C4.71022 7.79202 4.51769 8.76632 4.51892 9.75V10.5C4.51892 13.7156 3.85329 15.5344 3.30017 16.4906C3.1664 16.7185 3.0952 16.9777 3.09377 17.2419C3.09235 17.5061 3.16075 17.7661 3.29205 17.9954C3.42335 18.2247 3.6129 18.4152 3.84151 18.5477C4.07012 18.6803 4.32968 18.75 4.59392 18.75H8.25017C8.25017 19.7446 8.64526 20.6984 9.34852 21.4017C10.0518 22.1049 11.0056 22.5 12.0002 22.5C12.9947 22.5 13.9486 22.1049 14.6518 21.4017C15.3551 20.6984 15.7502 19.7446 15.7502 18.75H19.4064C19.6706 18.7517 19.9305 18.6831 20.1595 18.5513C20.3884 18.4196 20.5783 18.2293 20.7095 18C20.8397 17.7694 20.9073 17.5088 20.9056 17.2441C20.904 16.9793 20.8332 16.7196 20.7002 16.4906V16.4906ZM12.0002 21C11.4042 20.9975 10.8333 20.7597 10.4119 20.3383C9.99048 19.9168 9.75264 19.346 9.75017 18.75H14.2502C14.2477 19.346 14.0099 19.9168 13.5884 20.3383C13.167 20.7597 12.5961 20.9975 12.0002 21ZM4.59392 17.25C5.24079 16.125 6.01892 14.0531 6.01892 10.5V9.75C6.01645 8.96295 6.16934 8.18316 6.46882 7.45532C6.7683 6.72747 7.20849 6.06589 7.76414 5.50849C8.3198 4.95109 8.98 4.50884 9.70691 4.20708C10.4338 3.90533 11.2131 3.75 12.0002 3.75H12.047C15.3189 3.76875 17.9814 6.50625 17.9814 9.83438V10.5C17.9814 14.0531 18.7595 16.125 19.4064 17.25H4.59392Z" fill="currentColor"/>
</svg>
