<svg width="80" height="80" viewBox="0 0 80 80" fill="none" xmlns="http://www.w3.org/2000/svg">
<g clip-path="url(#clip0_2005_464)">
<path d="M47.4056 22L40.227 25.5664L33.0586 22L40.227 35.4981L47.4056 22Z" fill="#FDB913"/>
<path d="M49.9151 32.4286L49.8036 32.3383L54.9239 30.2115V23.1138L46.0572 26.8407C46.0572 26.8407 41.2359 35.8695 41.1295 36.0752C43.0248 36.2965 44.7631 37.2261 45.9886 38.6736C47.2142 40.1212 47.8343 41.9774 47.7223 43.8625C47.6103 45.7475 46.7745 47.519 45.3859 48.8145C43.9973 50.1099 42.1609 50.8315 40.2524 50.8315C38.3439 50.8315 36.5075 50.1099 35.119 48.8145C33.7304 47.519 32.8946 45.7475 32.7826 43.8625C32.6705 41.9774 33.2907 40.1212 34.5163 38.6736C35.7418 37.2261 37.48 36.2965 39.3754 36.0752L34.4578 26.8407L25.5454 23.1138V30.2366L30.6607 32.3633L30.5492 32.4536C28.2903 34.404 26.6867 36.9899 25.9529 39.866C25.2191 42.7421 25.3898 45.7713 26.4424 48.5488C27.495 51.3263 29.3793 53.7198 31.8434 55.4094C34.3075 57.099 37.2341 58.0043 40.2322 58.0043C43.2302 58.0043 46.1568 57.099 48.6209 55.4094C51.085 53.7198 52.9693 51.3263 54.0219 48.5488C55.0745 45.7713 55.2453 42.7421 54.5114 39.866C53.7776 36.9899 52.1741 34.404 49.9151 32.4536V32.4286Z" fill="#FDB913"/>
</g>
<defs>
<clipPath id="clip0_2005_464">
<rect width="29.4545" height="36" fill="white" transform="translate(25.5 22)"/>
</clipPath>
</defs>
</svg>
